<svg width="248" height="576" viewBox="0 0 248 576" fill="none" xmlns="http://www.w3.org/2000/svg">
<g clip-path="url(#clip0)">
<path fill-rule="evenodd" clip-rule="evenodd" d="M181.211 535.493C183.153 534.732 184.773 533.323 185.796 531.505C186.818 529.686 187.18 527.57 186.82 525.515C186.461 523.46 185.401 521.592 183.821 520.229C182.242 518.866 180.24 518.091 178.154 518.036C176.068 517.981 174.028 518.649 172.378 519.927C170.729 521.204 169.572 523.013 169.104 525.046C168.636 527.079 168.886 529.212 169.811 531.082C170.736 532.952 172.279 534.445 174.179 535.307C175.276 535.817 176.466 536.096 177.675 536.128C178.885 536.16 180.088 535.944 181.211 535.493ZM188.566 502.381C191.121 503.164 193.621 504.114 196.052 505.225C198.674 506.415 201.324 507.776 204.003 509.307L205.253 506.553C201.407 504.808 199.21 502.679 198.664 500.164C198.117 497.649 198.737 494.425 200.523 490.492L219.146 449.447C220.812 445.775 222.708 443.631 224.832 443.014C226.956 442.397 229.81 442.902 233.396 444.527L234.646 441.774C233.12 441.186 230.798 440.264 227.678 439.007C224.558 437.75 221.512 436.448 218.54 435.099C215.48 433.711 212.472 432.267 209.516 430.767C206.559 429.267 204.357 428.136 202.911 427.375L201.662 430.129C205.248 431.755 207.507 433.571 208.441 435.576C209.374 437.581 209.007 440.42 207.341 444.092L181.585 500.873C183.952 501.169 186.288 501.674 188.566 502.381V502.381ZM118.245 451.262C123.169 452.729 128.852 452.109 135.295 449.402L123.014 461.146C125.101 462.302 127.082 463.641 128.934 465.146C131.013 466.824 132.98 468.637 134.821 470.574C136.812 472.656 138.765 474.906 140.68 477.325L142.865 475.235C139.945 472.183 138.701 469.388 139.131 466.851C139.561 464.314 141.337 461.553 144.46 458.568L177.035 427.417C179.949 424.631 182.507 423.347 184.709 423.566C186.911 423.785 189.372 425.318 192.092 428.166L194.278 426.076C193.082 424.963 191.27 423.242 188.842 420.913C186.414 418.584 184.106 416.275 181.919 413.986C179.729 411.696 177.641 409.409 175.656 407.124C173.67 404.839 172.18 403.109 171.185 401.932L168.999 404.022C171.387 406.52 172.559 408.787 172.514 410.822C172.468 412.857 170.988 415.269 168.074 418.056L144.974 440.15C139.632 445.258 133.862 448.218 127.665 449.031C124.831 449.505 121.923 449.265 119.205 448.333C116.488 447.401 114.045 445.806 112.099 443.692C109.711 441.194 108.491 438.807 108.44 436.532C108.414 434.183 109.163 431.89 110.572 430.01C112.184 427.779 114.003 425.706 116.006 423.817L146.085 395.056C148.999 392.27 151.474 390.9 153.51 390.945C155.546 390.99 157.758 392.262 160.147 394.76L162.332 392.67C161.202 391.626 159.54 390.061 157.345 387.975C155.149 385.889 152.957 383.701 150.769 381.411C148.58 379.122 146.376 376.713 144.158 374.185C141.939 371.657 140.301 369.77 139.243 368.524L137.057 370.614C139.779 373.46 141.199 375.987 141.318 378.196C141.436 380.405 140.04 382.903 137.128 385.69L109.339 412.262C106.434 414.897 103.869 417.885 101.705 421.156C100.222 423.497 99.356 426.176 99.1886 428.942C99.0857 431.413 99.535 433.876 100.504 436.152C101.78 438.989 103.57 441.566 105.783 443.752C109.202 447.31 113.501 449.901 118.245 451.262V451.262ZM45.5266 277.662C45.8033 279.42 46.0536 281.397 46.2776 283.592C46.5016 285.787 46.6513 287.726 46.7266 289.408C46.8033 291.09 46.92 293.177 47.0766 295.669L49.9416 295.377C49.8083 290.277 50.6253 286.937 52.3926 285.356C54.16 283.775 57.5243 283.649 62.4856 284.976L106.986 296.931L106.186 296.145L63.7486 318.574C60.1706 320.387 57.5906 321.109 56.0086 320.74C55.2223 320.548 54.5071 320.136 53.9474 319.551C53.3877 318.966 53.0068 318.234 52.8496 317.44C52.2806 315.37 51.8948 313.254 51.6966 311.116L48.6886 311.423C49.1733 314.269 49.6313 317.336 50.0626 320.623C50.494 323.91 50.8606 327.033 51.1626 329.992C51.4066 332.38 51.5616 334.608 51.6276 336.675C51.6936 338.742 51.7766 340.736 51.8766 342.657L54.8856 342.349C54.8385 340.994 55.1234 339.648 55.7156 338.429C56.377 336.866 58.4913 335.13 62.0586 333.221L122.828 300.379C122.78 299.903 122.736 299.473 122.697 299.09C122.658 298.71 122.619 298.327 122.579 297.944L58.5786 280.744C54.8133 279.778 52.1363 278.604 50.5476 277.222C49.061 276.007 48.0233 274.33 47.5996 272.457L44.7346 272.75C44.9873 274.269 45.2513 275.906 45.5266 277.662ZM19.4336 226.469C20.5562 228.228 22.2526 229.545 24.2352 230.195C26.2177 230.846 28.3643 230.791 30.311 230.04C32.2578 229.289 33.8847 227.887 34.916 226.073C35.9473 224.26 36.3195 222.145 35.9695 220.088C35.6194 218.031 34.5686 216.158 32.9954 214.787C31.4221 213.416 29.4232 212.632 27.3375 212.567C25.2519 212.502 23.2079 213.16 21.5523 214.43C19.8967 215.7 18.7312 217.504 18.2536 219.535C17.9661 220.71 17.9225 221.932 18.1255 223.125C18.3284 224.318 18.7736 225.457 19.4336 226.471V226.469ZM53.3426 227.269C53.0708 229.929 52.6238 232.568 52.0046 235.169C51.3446 237.969 50.523 240.833 49.5396 243.761L52.4836 244.453C53.4503 240.342 55.1143 237.776 57.4756 236.753C59.837 235.73 63.12 235.714 67.3246 236.703L111.2 247.02C115.125 247.943 117.596 249.388 118.613 251.353C119.629 253.318 119.687 256.216 118.787 260.047L121.731 260.74C122.012 259.13 122.467 256.673 123.095 253.368C123.723 250.063 124.411 246.823 125.159 243.646C125.928 240.379 126.761 237.149 127.659 233.954C128.556 230.759 129.239 228.38 129.707 226.817L126.764 226.125C125.862 229.958 124.518 232.524 122.733 233.825C120.947 235.126 118.092 235.317 114.166 234.4L53.4656 220.126C53.6359 222.507 53.5947 224.898 53.3426 227.271V227.269ZM90.0206 148.269C89.5226 153.384 91.219 158.844 95.1096 164.649L81.2326 154.843C80.4951 157.113 79.5581 159.314 78.4326 161.419C77.1839 163.781 75.7809 166.059 74.2326 168.237C72.5706 170.589 70.7373 172.936 68.7326 175.279L71.2016 177.024C73.639 173.575 76.144 171.819 78.7166 171.754C81.2893 171.689 84.3393 172.904 87.8666 175.399L124.676 201.41C127.968 203.736 129.718 206.001 129.925 208.204C130.131 210.407 129.098 213.116 126.825 216.331L129.295 218.076C130.161 216.689 131.504 214.582 133.322 211.753C135.14 208.924 136.964 206.217 138.796 203.631C140.625 201.044 142.471 198.557 144.333 196.17C146.195 193.783 147.608 191.99 148.574 190.792L146.104 189.047C144.11 191.869 142.11 193.453 140.104 193.798C138.098 194.143 135.448 193.152 132.154 190.825L106.047 172.377C100.011 168.11 96.0006 163.014 94.0166 157.088C93.0087 154.397 92.6876 151.498 93.0822 148.652C93.4768 145.806 94.5747 143.103 96.2766 140.788C98.2713 137.966 100.381 136.312 102.605 135.826C104.905 135.351 107.299 135.648 109.414 136.671C111.912 137.826 114.296 139.215 116.533 140.819L150.52 164.835C153.812 167.162 155.631 169.328 155.977 171.335C156.322 173.342 155.497 175.756 153.502 178.579L155.972 180.325C156.78 179.017 157.997 177.086 159.625 174.531C161.252 171.976 162.98 169.406 164.809 166.821C166.637 164.233 168.579 161.609 170.636 158.948C172.692 156.287 174.231 154.318 175.251 153.041L172.782 151.296C170.51 154.511 168.301 156.389 166.156 156.929C164.01 157.469 161.291 156.576 157.999 154.25L126.599 132.062C123.456 129.715 120.033 127.77 116.409 126.272C113.827 125.264 111.032 124.927 108.285 125.292C105.839 125.664 103.508 126.577 101.46 127.963C98.9179 129.759 96.7302 132.009 95.0066 134.6C92.1686 138.636 90.4484 143.351 90.0206 148.267V148.269ZM166.606 76.017C163.296 80.9164 161.585 86.72 161.706 92.631C161.66 99.093 163.698 106.446 167.82 114.689C171.942 122.932 176.588 128.954 181.759 132.755C186.415 136.368 192.071 138.461 197.959 138.747C203.709 138.834 209.397 137.537 214.542 134.966C219.686 132.395 224.137 128.624 227.52 123.972C230.785 119.09 232.482 113.328 232.385 107.455C232.451 101.038 230.424 93.707 226.303 85.461C222.181 77.215 217.524 71.1717 212.331 67.331C207.693 63.6951 202.051 61.5698 196.168 61.242C190.417 61.1545 184.729 62.4509 179.584 65.0219C174.439 67.5929 169.988 71.3633 166.606 76.015V76.017ZM196.685 69.194C202.351 72.6947 208.06 80.198 213.811 91.704C219.561 103.21 222.125 112.258 221.503 118.849C220.878 125.44 218.119 129.958 213.225 132.404C208.331 134.85 203.061 134.345 197.415 130.888C191.769 127.431 186.071 119.949 180.321 108.442C174.571 96.9347 171.996 87.8647 172.598 81.232C173.198 74.6 175.946 70.0603 180.843 67.613C185.739 65.1657 191.02 65.6927 196.685 69.194ZM359.736 50.682C357.968 50.4667 355.999 50.1667 353.827 49.782C351.655 49.3973 349.749 49.0107 348.109 48.622C346.471 48.236 344.432 47.7773 341.992 47.246L341.492 50.081C346.434 51.3477 349.423 53.0477 350.46 55.181C351.496 57.3143 350.696 60.5853 348.06 64.994L324.385 104.523L325.362 103.965L315.402 57.01C314.637 53.0727 314.649 50.3937 315.437 48.973C315.836 48.2695 316.428 47.6945 317.142 47.316C317.857 46.9374 318.665 46.7709 319.472 46.836C321.619 46.8554 323.761 47.0635 325.872 47.458L326.4 44.481C323.53 44.169 320.456 43.769 317.179 43.281C313.901 42.793 310.797 42.293 307.866 41.781C305.502 41.3617 303.317 40.9013 301.311 40.4C299.304 39.8987 297.363 39.432 295.489 39L294.962 41.978C296.278 42.3037 297.494 42.946 298.506 43.849C299.828 44.9117 300.919 47.4203 301.779 51.375L316.737 118.812L318.013 119.038L319.147 119.238L353.206 62.389C355.165 59.0317 357.027 56.778 358.791 55.628C360.366 54.5308 362.263 53.9919 364.181 54.097L364.681 51.261C363.15 51.091 361.502 50.898 359.736 50.682ZM410.227 77.562C404.06 77.6182 398.04 79.4439 392.881 82.822C387.225 86.348 382.021 91.602 377.268 98.584C373.404 104.022 370.798 110.252 369.638 116.821C368.624 122.657 369.313 128.661 371.624 134.115C373.926 139.515 377.934 144.161 383.648 148.053C387.222 150.6 391.356 152.25 395.702 152.865C399.586 153.387 403.537 153.08 407.294 151.965C410.707 150.977 413.915 149.385 416.766 147.265L415.034 144.691C409.942 147.73 405.296 149.097 401.094 148.791C396.908 148.49 392.881 147.07 389.432 144.681C386.3 142.476 383.959 139.324 382.752 135.689C381.283 131.332 381.005 126.662 381.947 122.161C383.099 116.498 385.439 111.144 388.813 106.452C389.785 105.024 390.797 103.624 391.85 102.252C392.902 100.88 393.914 99.65 394.885 98.562L394.852 97.843C400.808 90.287 406.439 85.643 411.745 83.911C417.05 82.179 421.526 82.5563 425.174 85.043C426.451 85.8629 427.526 86.9611 428.319 88.2554C429.112 89.5497 429.602 91.0066 429.753 92.517C430.044 96.0872 429.481 99.6754 428.111 102.985C426.521 107.068 424.373 110.912 421.728 114.405L391.021 93.492L389.6 95.834L431.613 124.448C437.719 115.483 440.254 107.54 439.218 100.619C438.182 93.6983 434.171 87.8593 427.185 83.102C422.229 79.5696 416.312 77.6366 410.227 77.562V77.562ZM495.464 160.845C492.347 159.517 489.015 158.767 485.63 158.631C482.433 158.463 479.228 158.687 476.086 159.299L491.299 149.679C489.482 148.132 487.805 146.427 486.289 144.584C484.581 142.528 483.011 140.362 481.589 138.099C480.05 135.665 478.581 133.073 477.182 130.322L474.626 131.939C476.884 135.508 477.55 138.494 476.626 140.896C475.701 143.298 473.414 145.653 469.764 147.961L431.67 172.051C428.262 174.206 425.5 174.958 423.385 174.308C421.269 173.658 419.16 171.67 417.057 168.343L414.502 169.959C415.452 171.287 416.849 173.272 418.693 175.913C420.536 178.554 422.328 181.254 424.07 184.013C426.482 187.826 428.704 191.475 430.738 194.96C432.771 198.445 434.338 201.145 435.438 203.06L437.994 201.444C435.479 197.468 434.16 193.901 434.037 190.744C433.913 187.587 435.84 184.75 439.816 182.234L465.616 165.918C469.058 163.855 472.86 162.462 476.821 161.813C481.09 160.973 485.485 161.004 489.743 161.905C491.679 162.271 493.518 163.034 495.145 164.145C496.772 165.257 498.151 166.694 499.195 168.365C499.538 168.84 499.755 169.394 499.825 169.976C499.895 170.558 499.816 171.148 499.595 171.691C498.204 171.027 496.705 170.618 495.17 170.485C493.489 170.338 491.808 170.77 490.406 171.709C489.495 172.211 488.71 172.915 488.112 173.765C487.513 174.616 487.117 175.592 486.952 176.619C486.664 178.552 487.094 180.523 488.159 182.162C488.733 183.148 489.53 183.986 490.486 184.609C491.442 185.233 492.531 185.624 493.665 185.751C495.956 186.044 498.277 185.512 500.213 184.251C501.933 183.194 503.299 181.648 504.136 179.811C504.976 177.898 505.32 175.804 505.136 173.723C504.928 171.355 504.132 169.076 502.819 167.095C501.075 164.299 498.504 162.115 495.464 160.845V160.845ZM552.719 209.271C550.915 208.221 548.804 207.828 546.744 208.157C544.683 208.486 542.8 209.517 541.413 211.076C540.027 212.635 539.222 214.626 539.135 216.711C539.049 218.796 539.686 220.846 540.939 222.515C542.192 224.183 543.984 225.367 546.01 225.866C548.036 226.364 550.172 226.146 552.056 225.249C553.94 224.352 555.456 222.832 556.347 220.945C557.237 219.057 557.448 216.921 556.943 214.896C556.66 213.72 556.139 212.614 555.413 211.646C554.686 210.679 553.769 209.871 552.719 209.271ZM522.207 224.086C521.231 221.598 520.421 219.049 519.782 216.454C519.085 213.66 518.504 210.738 518.039 207.687L515.105 208.419C516.128 212.517 515.824 215.561 514.194 217.552C512.563 219.543 509.652 221.061 505.461 222.106L461.73 233.022C457.818 233.999 454.96 233.846 453.156 232.565C451.352 231.284 449.973 228.734 449.021 224.915L446.087 225.647C446.573 227.207 447.293 229.6 448.249 232.825C449.204 236.05 450.076 239.246 450.865 242.413C451.679 245.672 452.417 248.927 453.08 252.176C453.742 255.425 454.224 257.853 454.526 259.458L457.46 258.726C456.507 254.905 456.526 252.005 457.516 250.026C458.506 248.047 460.957 246.57 464.869 245.593L525.369 230.493C524.128 228.455 523.07 226.311 522.207 224.086V224.086ZM551.77 286.962C551.552 284.744 551.433 282.435 551.414 280.035L529.393 279.335L529.834 265.518L526.955 265.426L526.515 279.243L478.299 277.707C474.189 277.471 470.066 277.751 466.027 278.54C463.03 279.204 460.256 280.629 457.971 282.678C456.389 284.252 455.132 286.12 454.271 288.178C453.295 290.74 452.794 293.458 452.79 296.199C452.604 302.051 454.384 306.454 458.132 309.408C462.228 312.516 466.998 314.617 472.056 315.543L472.867 312.687C467.349 310.974 463.449 309.025 461.167 306.84C460.095 305.892 459.244 304.72 458.676 303.406C458.108 302.093 457.836 300.67 457.879 299.24C457.851 297.979 458.101 296.727 458.611 295.573C459.121 294.42 459.878 293.392 460.829 292.563C462.703 290.988 465.895 290.274 470.406 290.419L526.106 292.194L525.427 313.494L528.306 313.586L528.985 292.286L553.02 293.052C552.377 291.075 551.958 289.032 551.77 286.962V286.962ZM443.556 348.085C443.632 352.34 445.414 356.873 448.902 361.685C446.024 360.403 442.838 359.977 439.726 360.46C436.702 360.952 434.218 363.497 432.273 368.095C431.177 370.385 430.672 372.912 430.804 375.447C431.062 377.739 431.486 380.009 432.073 382.239L434.945 381.739C434.539 380.586 434.258 379.392 434.106 378.179C433.979 376.954 434.179 375.716 434.685 374.593C434.888 373.949 435.262 373.373 435.768 372.926C436.274 372.479 436.893 372.178 437.557 372.056C439.32 371.958 441.079 372.325 442.657 373.12L479.524 388.72C483.174 390.333 486.995 391.53 490.913 392.289C494.186 392.883 497.563 392.454 500.585 391.062C503.031 389.946 505.197 388.299 506.926 386.239C509.102 383.612 510.853 380.66 512.114 377.49C513.732 373.809 514.779 369.902 515.219 365.904C515.587 362.762 515.483 359.582 514.911 356.47C514.486 354.361 513.771 352.322 512.785 350.41C511.699 348.525 509.986 347.081 507.945 346.329C505.972 345.473 503.774 345.284 501.684 345.79C499.542 346.291 497.929 347.825 496.845 350.39C495.923 352.348 495.788 354.586 496.467 356.641C496.832 357.636 497.409 358.539 498.159 359.288C498.908 360.037 499.812 360.614 500.807 360.979C502.641 361.842 504.719 362.032 506.68 361.518C508.64 361.003 510.357 359.815 511.53 358.162C512.838 360.488 513.294 363.197 512.822 365.823C512.432 368.393 511.736 370.907 510.748 373.311C509.88 375.443 508.651 377.409 507.115 379.123C505.593 380.734 503.531 381.726 501.323 381.91C498.909 382.191 495.846 381.546 492.134 379.976L483.912 376.497C482.912 376.075 482.033 375.41 481.354 374.563C480.675 373.716 480.218 372.713 480.024 371.645C479.432 368.861 479.218 366.009 479.389 363.168C479.526 359.888 479.706 356.446 479.928 352.841C480.151 349.297 480.087 345.74 479.738 342.206C479.433 338.862 478.402 335.624 476.717 332.719C474.827 329.688 471.993 327.362 468.651 326.1C463.877 324.079 459.501 323.764 455.524 325.157C451.546 326.55 448.342 330.119 445.911 335.865C444.269 339.726 443.467 343.891 443.556 348.085V348.085ZM454.929 337.653C457.779 336.46 461.237 336.725 465.303 338.447C469.636 340.28 472.525 342.753 473.969 345.867C475.417 349.001 476.215 352.397 476.312 355.849C476.428 359.39 476.471 362.797 476.443 366.069C476.305 368.92 477.012 371.749 478.475 374.2L452.483 363.2C449.791 359.454 448.216 355.973 447.756 352.756C447.264 349.785 447.607 346.736 448.746 343.949C449.3 342.538 450.133 341.253 451.195 340.171C452.258 339.089 453.528 338.233 454.929 337.653ZM463.885 448.382C465.329 445.334 465.851 441.93 465.385 438.589C464.918 435.25 463.194 432.016 460.214 428.889C457.828 426.236 454.693 424.369 451.224 423.535C447.777 422.806 444.229 422.688 440.742 423.187C437.028 423.676 433.16 424.315 429.137 425.104C424.425 426.098 419.644 426.733 414.837 427.004C412.876 427.112 410.917 426.781 409.101 426.033C407.286 425.286 405.661 424.141 404.346 422.684C400.832 419.001 399.404 415.454 400.063 412.041C400.542 408.974 401.982 406.138 404.175 403.941C407.649 400.626 411.136 398.857 414.637 398.636C418.422 398.48 422.17 399.435 425.42 401.384C429.593 403.775 433.55 406.526 437.245 409.606L439.645 407.32C434.607 402.041 430.6 397.771 427.622 394.51C424.644 391.249 422.163 388.44 420.181 386.085L417.781 388.372C419.16 390.372 419.853 391.933 419.861 393.055C419.88 393.3 419.847 393.547 419.762 393.779C419.678 394.01 419.544 394.22 419.371 394.395C419.197 394.57 418.988 394.705 418.758 394.792C418.527 394.878 418.28 394.914 418.035 394.896C416.809 395.001 415.6 395.16 414.408 395.371C413.283 395.563 412.171 395.827 411.08 396.159C409.348 396.875 407.69 397.757 406.129 398.792C404.463 399.905 402.9 401.164 401.457 402.553C398.408 405.397 395.956 408.819 394.244 412.62C392.66 416.096 392.026 419.929 392.405 423.729C392.892 427.682 394.709 431.353 397.558 434.137C401.666 438.443 406.369 440.591 411.666 440.58C417.563 440.506 423.442 439.894 429.228 438.751C433.046 438.024 436.576 437.343 439.817 436.708C442.731 436.089 445.724 435.921 448.69 436.208C451.379 436.513 453.867 437.784 455.69 439.785C458.208 442.423 459.297 445.198 458.957 448.111C458.557 451.14 457.082 453.925 454.801 455.958C451.675 458.94 448.394 460.578 444.959 460.871C441.482 461.155 437.991 460.547 434.815 459.105C431.516 457.65 428.397 455.816 425.522 453.641L423.122 455.928C427.429 460.442 430.824 464.069 433.306 466.81C435.788 469.551 437.888 471.96 439.606 474.037L442.006 471.75C438.318 466.91 438.514 464.334 442.595 464.023C444.871 463.778 447.108 463.249 449.253 462.448C452.403 461.277 455.261 459.434 457.629 457.048C460.247 454.584 462.37 451.643 463.885 448.382ZM335.17 501.428C337.888 499.143 339.987 496.209 341.27 492.898C342.524 489.499 342.871 485.832 342.278 482.257C341.686 478.683 340.173 475.324 337.889 472.512C335.628 469.767 332.687 467.664 329.359 466.412C325.959 465.158 322.292 464.811 318.718 465.404C315.144 465.997 311.786 467.51 308.974 469.794C306.254 472.078 304.156 475.012 302.874 478.324C301.573 481.715 301.2 485.393 301.795 488.976C302.389 492.56 303.929 495.919 306.256 498.709C308.564 501.402 311.491 503.495 314.786 504.809C318.177 506.11 321.854 506.483 325.437 505.889C329.02 505.294 332.38 503.754 335.17 501.428V501.428Z" fill="#F2EFE3" stroke="#F2EFE3"/>
</g>
<defs>
<clipPath id="clip0">
<rect width="248" height="576" fill="white"/>
</clipPath>
</defs>
</svg>
