<svg width="56" height="56" viewBox="0 0 56 56" fill="none" xmlns="http://www.w3.org/2000/svg">
<path fill-rule="evenodd" clip-rule="evenodd" d="M28 1.09804C13.1425 1.09804 1.09804 13.1425 1.09804 28C1.09804 42.8575 13.1425 54.902 28 54.902C42.8575 54.902 54.902 42.8575 54.902 28C54.902 13.1425 42.8575 1.09804 28 1.09804ZM0 28C0 12.536 12.536 0 28 0C43.464 0 56 12.536 56 28C56 43.464 43.464 56 28 56C12.536 56 0 43.464 0 28Z" fill="white"/>
<path fill-rule="evenodd" clip-rule="evenodd" d="M28 13.7255C20.1164 13.7255 13.7255 20.1164 13.7255 28C13.7255 35.8836 20.1164 42.2745 28 42.2745C35.8836 42.2745 42.2745 35.8836 42.2745 28C42.2745 20.1164 35.8836 13.7255 28 13.7255ZM12.6275 28C12.6275 19.51 19.51 12.6275 28 12.6275C36.49 12.6275 43.3726 19.51 43.3726 28C43.3726 36.49 36.49 43.3726 28 43.3726C19.51 43.3726 12.6275 36.49 12.6275 28Z" fill="white"/>
<path fill-rule="evenodd" clip-rule="evenodd" d="M12.0721 18.5361L12.7489 17.6577L10.7724 14.8624C10.7425 14.818 10.7092 14.7702 10.6724 14.719C10.6357 14.6678 10.5957 14.6148 10.5524 14.5602C10.6163 14.5881 10.6777 14.6133 10.7366 14.6358C10.7955 14.6582 10.8502 14.6783 10.9007 14.6962L14.0984 15.9071L14.7753 15.0287L11.589 10.5143L11.0006 11.2778C10.9416 11.3502 10.9079 11.4398 10.9045 11.5331C10.8992 11.612 10.9212 11.6903 10.9668 11.755L12.7057 14.0101C12.7594 14.0789 12.8182 14.1509 12.8822 14.2262C12.9462 14.3015 13.0144 14.3792 13.0868 14.4593C12.9874 14.4102 12.8911 14.368 12.7978 14.3327C12.7045 14.2975 12.6163 14.2645 12.5331 14.2339L9.83431 13.2243C9.75689 13.1954 9.67189 13.1936 9.59335 13.2194C9.50615 13.251 9.43068 13.3085 9.37703 13.3841L9.15583 13.6711C9.09698 13.7432 9.06411 13.833 9.0625 13.9261C9.05891 14.0046 9.0798 14.0822 9.12229 14.1483L10.7815 16.5067C10.8361 16.5824 10.8942 16.6623 10.9559 16.7464C11.0176 16.8305 11.0861 16.9168 11.1612 17.0053C11.0692 16.9489 10.9738 16.8982 10.8755 16.8537C10.7803 16.8109 10.69 16.7717 10.6045 16.7363L7.98088 15.6293C7.90531 15.5979 7.82081 15.5955 7.74359 15.6225C7.65507 15.6545 7.57836 15.7126 7.52365 15.7892L6.89546 16.6043L12.0721 18.5361ZM15.0866 8.14866L14.0721 8.84778L17.0681 13.1948L18.0826 12.4957L15.0866 8.14866ZM19.4537 5.89098L18.3337 6.38669L19.7062 9.48811C19.7708 9.6272 19.8195 9.77316 19.8513 9.9232C19.8747 10.0306 19.8752 10.1417 19.853 10.2494C19.8321 10.34 19.7854 10.4226 19.7185 10.4872C19.6414 10.5591 19.5522 10.6167 19.455 10.6574C19.3887 10.6879 19.3194 10.7113 19.2481 10.7272C19.1977 10.7364 19.1483 10.751 19.1009 10.7706C19.0378 10.794 18.9855 10.8397 18.9537 10.8991C18.9413 10.9254 18.9343 10.9539 18.9332 10.983C18.9321 11.0121 18.9369 11.0411 18.9474 11.0683L19.1766 11.7475C19.3159 11.7215 19.4534 11.687 19.5884 11.6443C19.7181 11.6028 19.8455 11.5544 19.97 11.4992C20.2207 11.395 20.4478 11.2412 20.6377 11.0472C20.7987 10.8789 20.9183 10.6754 20.9869 10.4528C21.0536 10.2247 21.0718 9.98515 21.0402 9.7496C21.0044 9.47982 20.9287 9.21685 20.8156 8.96928L19.4537 5.89098ZM23.0047 4.798L22.3661 4.88869L23.1086 10.1157L24.1777 9.96383L23.7797 7.16196C23.7687 7.08543 23.7547 7.00386 23.7376 6.91727C23.7205 6.83067 23.7019 6.74242 23.6817 6.65253L26.5886 9.4164C26.6465 9.4766 26.7183 9.52169 26.7976 9.54773C26.877 9.56777 26.9597 9.57099 27.0405 9.55717L27.6718 9.46746L26.9294 4.24047L25.8604 4.39216L26.2532 7.15812C26.2651 7.2419 26.2802 7.33066 26.2984 7.4244C26.3166 7.51813 26.3376 7.61458 26.3614 7.71373L23.433 4.92745C23.4005 4.89706 23.3659 4.86896 23.3295 4.84334C23.3018 4.82416 23.2713 4.80934 23.2391 4.79942C23.2064 4.79011 23.1725 4.78568 23.1384 4.7863C23.0936 4.78733 23.049 4.79123 23.0047 4.798ZM31.2855 4.55418L30.0741 4.37404L29.2977 9.5961L32.4446 10.064L32.5884 9.09627L30.653 8.80853L31.2855 4.55418ZM39.5604 8.99481C39.5799 8.65184 39.53 8.30845 39.4135 7.98527C39.2927 7.6581 39.1071 7.35871 38.8677 7.10509C38.6037 6.82632 38.2873 6.60243 37.9366 6.44626C37.5897 6.28083 37.2138 6.18473 36.8301 6.16335C36.4811 6.14434 36.132 6.19643 35.8038 6.31647C35.4816 6.43683 35.1873 6.62152 34.9389 6.85929C34.4125 7.37172 34.0946 8.06098 34.0465 8.79403C34.0259 9.14065 34.0772 9.48777 34.1971 9.81363C34.317 10.1395 34.503 10.4371 34.7433 10.6877C35.2844 11.2405 36.0099 11.5751 36.7817 11.6278C37.1277 11.6471 37.474 11.5947 37.7988 11.474C38.1237 11.3533 38.4201 11.1669 38.6695 10.9263C39.1953 10.4149 39.5128 9.72669 39.5604 8.99476V8.99481ZM37.7677 10.1173C37.6316 10.2693 37.4658 10.3917 37.2805 10.4772C37.1041 10.5557 36.9117 10.592 36.7188 10.5832C36.5047 10.5715 36.295 10.5175 36.1018 10.4243C35.9038 10.3372 35.725 10.212 35.5754 10.0558C35.4427 9.91481 35.3449 9.74464 35.2899 9.55898C35.2344 9.36255 35.2199 9.15682 35.2471 8.95451C35.3174 8.47893 35.5229 8.03355 35.839 7.67129C35.9751 7.51929 36.1409 7.39681 36.3262 7.31141C36.5034 7.23264 36.6965 7.19604 36.8902 7.20446C37.1063 7.21569 37.3181 7.26993 37.513 7.364C37.7094 7.45052 37.8865 7.57561 38.0337 7.73185C38.1651 7.87379 38.262 8.04412 38.3168 8.22959C38.3721 8.42588 38.3866 8.63141 38.3594 8.83351C38.2891 9.30923 38.0838 9.75478 37.7677 10.1172V10.1173ZM42.7838 9.44435L39.2249 13.3439L40.1349 14.1744L41.5199 12.6569L42.8528 13.8733L43.4903 13.1748L42.1574 11.9583L43.0588 10.9707L44.6593 12.4314L45.2944 11.7355L42.7838 9.44435ZM46.8995 13.5919L46.0787 14.1107L46.8724 15.3665L43.2307 17.6686L43.8851 18.7038L47.5269 16.4018L48.3207 17.6576L49.1415 17.1387L46.8995 13.5919Z" fill="white"/>
<path fill-rule="evenodd" clip-rule="evenodd" d="M14.8071 41.0967L11.3947 45.125L13.9881 47.322L14.5971 46.6031L12.9437 45.2025L13.7562 44.2431L15.0227 45.3161L15.6082 44.6249L14.342 43.5521L15.1381 42.6121L16.7914 44.0128L17.4004 43.2939L14.8071 41.0967ZM20.3453 45.5072C20.3028 45.3815 20.2463 45.261 20.1771 45.1478C20.1032 45.0266 20.0187 44.9123 19.9245 44.8061C19.8247 44.6934 19.7148 44.59 19.5962 44.4971C19.4716 44.3993 19.3392 44.3118 19.2003 44.2357C18.9719 44.1046 18.721 44.0177 18.4605 43.9793C18.2374 43.9473 18.0102 43.9592 17.7917 44.0143C17.5913 44.0659 17.4037 44.1584 17.2409 44.2861C17.0836 44.4086 16.9529 44.5617 16.8566 44.7363C16.7492 44.9188 16.6777 45.1202 16.6457 45.3296C16.623 45.4955 16.6334 45.6643 16.6763 45.8262C16.7177 45.9762 16.7845 46.1179 16.8739 46.2452C16.9628 46.3724 17.061 46.4928 17.1677 46.6055C17.2741 46.7178 17.3793 46.8247 17.4834 46.9262C17.5793 47.0183 17.6675 47.1181 17.7473 47.2245C17.8146 47.3123 17.8625 47.4133 17.8879 47.521C17.9087 47.6285 17.8887 47.7398 17.8318 47.8334C17.7293 48.0196 17.6005 48.1259 17.4453 48.1521C17.2902 48.1784 17.1153 48.138 16.9208 48.031C16.7918 47.9636 16.6761 47.8734 16.5793 47.7647C16.5019 47.675 16.4325 47.5786 16.3719 47.4767C16.317 47.3832 16.2684 47.2986 16.2262 47.2228C16.1901 47.1535 16.135 47.0959 16.0674 47.0567C16.0198 47.0302 15.9662 47.0164 15.9117 47.0165C15.8595 47.0157 15.8081 47.0288 15.7626 47.0544L15.169 47.3812C15.2131 47.5295 15.2749 47.6719 15.3533 47.8052C15.4372 47.9496 15.5335 48.0864 15.6412 48.214C15.7519 48.3456 15.8737 48.4674 16.0054 48.578C16.1341 48.6868 16.2731 48.7828 16.4206 48.8644C16.6581 49.0003 16.9187 49.0912 17.1892 49.1325C17.423 49.1678 17.6615 49.154 17.8897 49.0922C18.1061 49.0315 18.3073 48.9259 18.4802 48.7824C18.6604 48.6326 18.8102 48.4497 18.9216 48.2436C19.019 48.0772 19.0813 47.8925 19.1046 47.7011C19.1213 47.5412 19.107 47.3796 19.0626 47.2251C19.0185 47.0763 18.9507 46.9356 18.8618 46.8084C18.7724 46.6796 18.6752 46.5563 18.5709 46.4393C18.4668 46.3227 18.363 46.2118 18.2597 46.1066C18.165 46.0116 18.0772 45.91 17.9969 45.8027C17.9308 45.7168 17.8813 45.6194 17.8509 45.5155C17.8383 45.4685 17.8352 45.4195 17.8418 45.3713C17.8484 45.3231 17.8646 45.2767 17.8894 45.2348C17.9224 45.1679 17.97 45.1093 18.0287 45.0632C18.0873 45.0172 18.1556 44.9848 18.2284 44.9685C18.3739 44.937 18.5473 44.9766 18.7483 45.0873C18.8546 45.1438 18.951 45.2172 19.0338 45.3046C19.1023 45.3782 19.1645 45.4575 19.2198 45.5414C19.2697 45.6186 19.3143 45.6879 19.3535 45.7495C19.3855 45.8041 19.4309 45.8496 19.4853 45.882C19.532 45.9105 19.5866 45.9232 19.6411 45.9182C19.6987 45.909 19.754 45.8889 19.804 45.859L20.3453 45.5072ZM20.5657 45.0996L20.2817 46.0282L21.7023 46.4629L20.4419 50.5827L21.613 50.9411L22.8735 46.8212L24.2941 47.2558L24.5782 46.3272L20.5657 45.0996ZM23.5044 51.0528C23.5228 51.1312 23.5567 51.2051 23.6042 51.2701C23.6516 51.3352 23.7116 51.3901 23.7806 51.4316C23.8549 51.4766 23.9372 51.5066 24.023 51.5201C24.1073 51.5349 24.1937 51.5332 24.2773 51.515C24.3566 51.4978 24.4319 51.4655 24.499 51.42C24.5657 51.3744 24.6224 51.3158 24.6658 51.2477C24.711 51.1769 24.7412 51.0975 24.7545 51.0146C24.7687 50.934 24.7664 50.8513 24.7475 50.7717C24.7286 50.6921 24.6936 50.6172 24.6447 50.5516C24.5958 50.4864 24.5354 50.4308 24.4665 50.3875C24.3938 50.3419 24.3127 50.3114 24.228 50.2979C24.1424 50.2826 24.0546 50.2847 23.9699 50.3042C23.891 50.3223 23.8163 50.3553 23.7497 50.4013C23.6842 50.447 23.6282 50.505 23.5849 50.5721C23.5398 50.6423 23.5097 50.721 23.4965 50.8034C23.482 50.8862 23.4847 50.9711 23.5044 51.0528ZM28.7985 46.5508C28.5985 46.6258 28.4153 46.7395 28.2593 46.8854C28.1033 47.0313 27.9776 47.2065 27.8895 47.4011C27.7897 47.6229 27.7316 47.8612 27.7181 48.1041L28.3185 48.165C28.3478 48.1678 28.3763 48.1693 28.4042 48.1696C28.432 48.1699 28.458 48.1692 28.4822 48.1675C28.5686 48.1658 28.6517 48.134 28.7171 48.0774C28.7814 48.0086 28.826 47.9237 28.8461 47.8317C28.865 47.7657 28.8927 47.7025 28.9284 47.6439C28.9641 47.5856 29.0087 47.5333 29.0605 47.4888C29.1147 47.4426 29.1756 47.4051 29.2412 47.3774C29.3139 47.347 29.3912 47.329 29.4698 47.3241C29.6747 47.309 29.8313 47.3537 29.9394 47.4583C30.0474 47.5629 30.1093 47.7199 30.125 47.9294C30.1347 48.052 30.128 48.1753 30.1049 48.296C30.0804 48.418 30.0417 48.5368 29.9896 48.6498C29.9301 48.7781 29.8589 48.9008 29.777 49.0161C29.6796 49.1537 29.5754 49.2863 29.4648 49.4135L28.0602 51.0544C27.9967 51.118 27.9501 51.1963 27.9245 51.2824C27.9024 51.356 27.8933 51.4329 27.8977 51.5097L27.9244 51.871L31.6248 51.5972L31.5766 50.9468C31.5751 50.898 31.5632 50.8502 31.5418 50.8063C31.5204 50.7625 31.4899 50.7237 31.4525 50.6925C31.3689 50.629 31.2637 50.6008 31.1596 50.6143L30.1769 50.687C30.0551 50.6969 29.9344 50.7173 29.8163 50.7482C29.6858 50.7817 29.5571 50.8222 29.431 50.8694L30.3828 49.738C30.512 49.5855 30.6335 49.4354 30.7474 49.2878C30.8581 49.1448 30.9569 48.9928 31.0426 48.8335C31.1248 48.6804 31.1878 48.5177 31.2302 48.3491C31.273 48.1723 31.287 47.9896 31.2719 47.8083C31.2587 47.5969 31.2033 47.3904 31.1088 47.2009C31.0192 47.023 30.8918 46.8669 30.7355 46.7434C30.5702 46.6152 30.381 46.5212 30.1791 46.4667C29.9474 46.4046 29.7067 46.3837 29.4678 46.4049C29.2387 46.4201 29.0132 46.4692 28.7985 46.5508ZM35.3123 46.6661C35.1488 46.3971 34.9352 46.162 34.6831 45.9734C34.466 45.8142 34.2131 45.7107 33.9466 45.6722C33.6802 45.6364 33.4092 45.6578 33.1517 45.735C32.894 45.8071 32.6547 45.9338 32.4502 46.1065C32.2477 46.2817 32.0914 46.5039 31.9948 46.7537C31.8841 47.0478 31.8307 47.3604 31.8376 47.6747C31.8693 48.4856 32.0989 49.2765 32.5064 49.9783C32.6687 50.2475 32.8812 50.483 33.1322 50.6721C33.3478 50.8315 33.5989 50.936 33.8639 50.9766C34.1291 51.0142 34.3993 50.9937 34.6558 50.9165C34.9148 50.8438 35.1551 50.7162 35.3603 50.5422C35.5642 50.366 35.7222 50.1428 35.8205 49.8918C35.9325 49.5975 35.987 49.2846 35.981 48.9698C35.9518 48.1585 35.7221 47.3671 35.3123 46.6663V46.6661ZM34.8602 48.982C34.8828 49.1747 34.8751 49.3698 34.8374 49.5602C34.8141 49.6868 34.7543 49.8038 34.6654 49.8969C34.5919 49.9682 34.5023 50.0207 34.4043 50.05C34.3063 50.0778 34.203 50.0812 34.1034 50.06C33.9798 50.0285 33.8683 49.9611 33.783 49.8662C33.6516 49.7243 33.5425 49.5633 33.4595 49.3886C33.2078 48.8419 33.0391 48.2608 32.959 47.6643C32.9353 47.4724 32.9411 47.2779 32.9765 47.0878C32.9984 46.9627 33.0566 46.8467 33.1438 46.7544C33.2166 46.6832 33.3057 46.6308 33.4033 46.6017C33.5018 46.574 33.6056 46.5704 33.7058 46.5913C33.8303 46.6221 33.9432 46.6882 34.0309 46.7818C34.1649 46.9222 34.2759 47.0829 34.3597 47.258C34.6137 47.8037 34.7825 48.3852 34.8602 48.9822V48.982ZM36.2212 44.6542C36.0689 44.8039 35.9475 44.9822 35.8642 45.1789C35.7809 45.3755 35.7372 45.5867 35.7356 45.8003C35.7344 46.0436 35.778 46.285 35.8643 46.5124L36.4378 46.3244C36.4656 46.315 36.4923 46.3047 36.5179 46.2938C36.5435 46.2828 36.567 46.2716 36.5883 46.2602C36.6667 46.2236 36.7297 46.1607 36.7665 46.0825C36.7973 45.9935 36.8036 45.8978 36.7846 45.8056C36.7751 45.7376 36.7748 45.6686 36.7837 45.6005C36.7926 45.5328 36.8121 45.4669 36.8414 45.4052C36.8722 45.341 36.9126 45.2819 36.9613 45.2299C37.0154 45.1727 37.0787 45.1249 37.1486 45.0885C37.3295 44.9915 37.4908 44.9689 37.6322 45.0205C37.7737 45.0722 37.894 45.1907 37.9932 45.3759C38.0519 45.484 38.0958 45.5994 38.1237 45.7192C38.1507 45.8406 38.1635 45.9649 38.1617 46.0893C38.1594 46.2308 38.1441 46.3718 38.116 46.5105C38.0829 46.6758 38.0416 46.8393 37.9922 47.0005L37.3745 49.0703C37.3424 49.1542 37.3315 49.2447 37.3431 49.3338C37.3527 49.41 37.3757 49.484 37.4109 49.5524L37.582 49.8718L40.8525 48.1194L40.5445 47.5445C40.5233 47.5006 40.493 47.4617 40.4557 47.4303C40.4183 47.399 40.3748 47.3759 40.3279 47.3625C40.2257 47.3384 40.1182 47.3554 40.0285 47.4099L39.1597 47.8754C39.0524 47.9338 38.9504 48.0015 38.8549 48.0777C38.7493 48.1613 38.6482 48.2504 38.552 48.3448L38.9627 46.9245C39.0188 46.7327 39.0689 46.5462 39.113 46.365C39.1562 46.1893 39.1848 46.0104 39.1984 45.83C39.2114 45.6567 39.203 45.4824 39.1733 45.3111C39.1406 45.1321 39.0795 44.9595 38.9921 44.7999C38.8943 44.6122 38.7599 44.4459 38.5968 44.311C38.4426 44.1848 38.2627 44.0939 38.0697 44.0446C37.8666 43.9945 37.6556 43.9853 37.4489 44.0175C37.2119 44.0548 36.9834 44.1334 36.7736 44.2498C36.5704 44.3565 36.3843 44.4929 36.2212 44.6544V44.6542ZM42.2256 42.1145C41.9671 41.9348 41.6766 41.8063 41.3697 41.7361C41.1067 41.6784 40.8336 41.6862 40.5744 41.7589C40.3163 41.8341 40.0772 41.9635 39.8731 42.1383C39.6666 42.3087 39.4992 42.5214 39.3822 42.7622C39.268 43.0044 39.2151 43.2709 39.228 43.5384C39.2458 43.8522 39.3237 44.1598 39.4574 44.4443C39.8148 45.1729 40.3451 45.803 41.0019 46.2796C41.2594 46.4599 41.549 46.5891 41.8551 46.6603C42.1168 46.7188 42.3887 46.7126 42.6475 46.6423C42.9052 46.5693 43.1439 46.4411 43.3471 46.2666C43.5545 46.0953 43.7224 45.8812 43.8396 45.6391C43.9547 45.3954 44.0087 45.1273 43.9968 44.858C43.98 44.5436 43.9031 44.2354 43.7702 43.9499C43.4148 43.22 42.8842 42.5895 42.2256 42.1146V42.1145ZM42.7503 44.4149C42.8491 44.582 42.9211 44.7635 42.9639 44.9529C42.9937 45.0781 42.9865 45.2093 42.9429 45.3305C42.9046 45.4254 42.844 45.5097 42.7662 45.5763C42.6878 45.6413 42.5948 45.6863 42.4952 45.7072C42.3694 45.7285 42.2402 45.712 42.1238 45.6599C41.9461 45.5833 41.7811 45.4803 41.6345 45.3542C41.1829 44.9564 40.7932 44.4933 40.4784 43.9804C40.3788 43.8145 40.3054 43.6343 40.2608 43.4461C40.23 43.3228 40.2363 43.1932 40.2787 43.0734C40.3164 42.9789 40.3766 42.8949 40.454 42.8288C40.5329 42.7635 40.6264 42.7182 40.7264 42.6966C40.8527 42.6743 40.9827 42.6891 41.1008 42.7391C41.2802 42.8131 41.4468 42.915 41.5943 43.0411C42.0476 43.4373 42.4375 43.9007 42.7503 44.4151V44.4149Z" fill="white"/>
<path d="M36.949 26.6802C36.949 24.5477 35.2062 22.8127 33.0641 22.8127C32.1198 22.8127 31.2287 23.1471 30.5302 23.7478C30.019 23.31 29.3925 23.0023 28.7028 22.8763C29.0912 19.9087 32.1636 19.5702 32.3003 19.5567C32.6646 19.5233 32.9328 19.2022 32.8993 18.8395C32.8657 18.4769 32.5434 18.2098 32.1788 18.2433C32.1298 18.2478 30.965 18.3613 29.7943 19.0481C29.175 19.4115 28.4885 19.9753 27.9989 20.8307C27.6812 19.6951 27.1176 18.8585 26.5959 18.2834C25.6484 17.2391 24.6318 16.8128 24.589 16.7952C24.4194 16.7254 24.2282 16.7286 24.0612 16.8043C23.8941 16.88 23.7661 17.0214 23.7077 17.1946C23.6918 17.2416 23.3222 18.3627 23.5871 19.7682C23.7865 20.8267 24.3835 22.2206 26.0194 23.3543C25.8247 23.4697 25.6409 23.6014 25.4699 23.7477C24.7711 23.147 23.8799 22.8127 22.9359 22.8127C20.7938 22.8127 19.051 24.5476 19.051 26.6801C19.051 28.3012 20.0582 29.6923 21.4822 30.2664C21.2072 31.2846 21.3626 32.3752 21.938 33.3002C22.4508 34.1246 23.2331 34.71 24.1357 34.9736C24.0292 35.9339 24.2871 36.895 24.8813 37.6919C25.6219 38.6852 26.7586 39.2549 28 39.2549C30.1422 39.2549 31.8849 37.52 31.8849 35.3875C31.8849 35.2395 31.8753 35.0994 31.8614 34.9727C32.8299 34.6884 33.6602 34.0338 34.1593 33.1352C34.6509 32.2501 34.7713 31.2213 34.5164 30.267C35.9412 29.6932 36.949 28.3018 36.949 26.6802ZM30.5601 26.6801C30.5601 28.0854 29.4116 29.2287 28 29.2287C26.5884 29.2287 25.4399 28.0854 25.4399 26.6801C25.4399 25.2749 26.5884 24.1316 28 24.1316C29.4116 24.1316 30.5601 25.2749 30.5601 26.6801ZM24.8204 18.4557C25.6154 19.0381 26.785 20.2456 26.9175 22.366C24.997 21.1075 24.7589 19.445 24.8204 18.4557ZM20.3758 26.6802C20.3758 25.2749 21.5243 24.1316 22.9359 24.1316C23.5669 24.1316 24.1619 24.3588 24.6255 24.7656C24.3008 25.3305 24.1151 25.9841 24.1151 26.6802C24.1151 27.3762 24.3008 28.0299 24.6255 28.5947C24.1619 29.0015 23.5669 29.2287 22.9359 29.2287C21.5243 29.2287 20.3758 28.0855 20.3758 26.6802ZM23.0644 32.6059C22.673 31.9767 22.5758 31.2322 22.7804 30.5442C22.832 30.5462 22.8838 30.5476 22.9359 30.5476C23.8799 30.5476 24.7711 30.2133 25.47 29.6126C25.8994 29.9803 26.4102 30.2562 26.9715 30.4097C26.7838 31.2304 26.8713 32.0927 27.2272 32.8675C26.7439 33.4641 26.0229 33.8114 25.2377 33.8114C25.1523 33.8114 25.0678 33.8072 24.9842 33.7991C24.9838 33.7991 24.9834 33.799 24.983 33.799C24.1933 33.7218 23.4887 33.2882 23.0644 32.6059ZM28 37.9361C27.1822 37.9361 26.4333 37.5606 25.9452 36.9059C25.5555 36.3834 25.3855 35.7537 25.4527 35.1241C26.4311 35.0717 27.3311 34.6629 28.0025 33.9823C28.6771 34.6574 29.5863 35.0686 30.5456 35.1236C30.5543 35.2055 30.5601 35.2944 30.5601 35.3874C30.5601 36.7927 29.4116 37.9361 28 37.9361ZM32.9999 32.4971C32.5867 33.241 31.8645 33.7155 31.0176 33.7989C31.0174 33.7989 31.0172 33.7989 31.0169 33.7989C31.0165 33.799 31.0161 33.799 31.0157 33.799C30.0372 33.8961 29.0762 33.4161 28.5677 32.5761C28.1922 31.9542 28.1038 31.2152 28.3088 30.5353C29.1536 30.4689 29.9231 30.1323 30.5302 29.6125C31.2287 30.2132 32.1199 30.5476 33.0641 30.5476C33.1164 30.5476 33.1684 30.5462 33.2202 30.5442C33.4145 31.1919 33.3406 31.8837 32.9999 32.4971ZM33.0641 29.2287C32.433 29.2287 31.838 29.0015 31.3746 28.5946C31.6992 28.0298 31.8849 27.3762 31.8849 26.6802C31.8849 25.9841 31.6992 25.3306 31.3746 24.7657C31.838 24.3589 32.4329 24.1316 33.064 24.1316C34.4757 24.1316 35.6241 25.2749 35.6241 26.6802C35.6241 28.0855 34.4757 29.2287 33.0641 29.2287Z" fill="white"/>
<path d="M10.1569 28C10.1569 29.2129 9.17365 30.1961 7.96078 30.1961C6.74792 30.1961 5.76471 29.2129 5.76471 28C5.76471 26.7871 6.74792 25.8039 7.96078 25.8039C9.17365 25.8039 10.1569 26.7871 10.1569 28Z" fill="white"/>
<path d="M50.2353 28C50.2353 29.2129 49.2521 30.1961 48.0392 30.1961C46.8264 30.1961 45.8431 29.2129 45.8431 28C45.8431 26.7871 46.8264 25.8039 48.0392 25.8039C49.2521 25.8039 50.2353 26.7871 50.2353 28Z" fill="white"/>
</svg>
