<svg width="576" height="576" viewBox="0 0 576 576" fill="none" xmlns="http://www.w3.org/2000/svg">
<g clip-path="url(#clip0)">
<path fill-rule="evenodd" clip-rule="evenodd" d="M319.429 555.475C320.731 553.845 321.429 551.814 321.405 549.728C321.381 547.642 320.637 545.628 319.298 544.028C317.958 542.428 316.107 541.341 314.058 540.95C312.008 540.56 309.887 540.89 308.053 541.885C306.219 542.88 304.786 544.479 303.996 546.41C303.207 548.341 303.109 550.486 303.721 552.481C304.332 554.475 305.614 556.197 307.35 557.354C309.086 558.512 311.169 559.033 313.246 558.83C314.451 558.722 315.621 558.369 316.685 557.792C317.748 557.215 318.682 556.426 319.429 555.475ZM309.242 523.121C311.846 522.522 314.487 522.094 317.147 521.841C320.013 521.561 322.989 521.414 326.074 521.401L325.78 518.391C321.576 518.803 318.61 518.057 316.879 516.152C315.148 514.248 314.073 511.146 313.653 506.847L309.258 461.989C308.866 457.976 309.435 455.171 310.966 453.575C312.497 451.979 315.221 450.988 319.139 450.603L318.845 447.594C317.23 447.847 314.757 448.21 311.427 448.682C308.097 449.153 304.808 449.548 301.559 449.866C298.216 450.194 294.889 450.447 291.578 450.627C288.268 450.806 285.796 450.928 284.162 450.992L284.458 454.001C288.376 453.616 291.241 454.059 293.052 455.329C294.863 456.599 295.965 459.241 296.357 463.254L302.442 525.306C304.64 524.379 306.916 523.648 309.242 523.121ZM222.783 514.011C227.781 512.82 232.392 509.441 236.619 503.876L231.855 520.187C234.241 520.144 236.626 520.313 238.982 520.691C241.622 521.104 244.232 521.691 246.794 522.448C249.56 523.255 252.376 524.228 255.244 525.365L256.091 522.463C252.037 521.279 249.562 519.481 248.665 517.069C247.769 514.657 247.927 511.377 249.139 507.231L261.774 463.966C262.905 460.096 264.478 457.706 266.494 456.794C268.511 455.882 271.409 455.98 275.188 457.086L276.036 454.183C274.444 453.818 272.015 453.233 268.747 452.43C265.48 451.627 262.327 450.781 259.288 449.892C256.247 449.004 253.295 448.067 250.433 447.081C247.572 446.095 245.416 445.342 243.965 444.82L243.117 447.723C246.435 448.692 248.583 450.07 249.561 451.855C250.54 453.64 250.464 456.468 249.333 460.34L240.375 491.024C238.303 498.118 234.786 503.567 229.825 507.369C227.608 509.197 224.97 510.443 222.15 510.994C219.331 511.546 216.418 511.386 213.675 510.529C210.358 509.559 208.109 508.102 206.927 506.157C205.73 504.136 205.232 501.776 205.512 499.443C205.793 496.705 206.332 494 207.121 491.363L218.79 451.416C219.921 447.546 221.379 445.122 223.165 444.143C224.951 443.164 227.502 443.159 230.82 444.128L231.667 441.226C230.167 440.886 227.945 440.362 225.001 439.653C222.057 438.944 219.064 438.146 216.024 437.257C212.984 436.368 209.871 435.384 206.686 434.304C203.5 433.224 201.138 432.409 199.599 431.859L198.751 434.762C202.531 435.866 205.025 437.344 206.232 439.198C207.439 441.051 207.478 443.913 206.35 447.783L195.57 484.689C194.372 488.424 193.645 492.294 193.406 496.209C193.292 498.978 193.882 501.73 195.12 504.21C196.266 506.401 197.887 508.31 199.864 509.796C202.388 511.615 205.226 512.952 208.236 513.739C212.976 515.111 217.995 515.205 222.783 514.011ZM73.0073 400.028C74.1259 401.413 75.331 402.999 76.6227 404.788C77.9143 406.578 79.0133 408.182 79.9195 409.601C80.8269 411.019 81.9715 412.768 83.3531 414.848L85.6883 413.163C83.0228 408.812 82.0602 405.511 82.8004 403.259C83.5406 401.006 86.3909 399.214 91.3512 397.883L135.867 385.986L134.781 385.706L109.244 426.348C107.052 429.707 105.178 431.622 103.624 432.094C102.847 432.321 102.021 432.322 101.244 432.095C100.467 431.869 99.7713 431.425 99.2382 430.816C97.7103 429.307 96.3181 427.668 95.0777 425.915L92.6261 427.685C94.4689 429.908 96.3989 432.334 98.4161 434.966C100.433 437.597 102.312 440.118 104.053 442.53C105.459 444.476 106.707 446.327 107.797 448.085C108.888 449.842 109.957 451.527 111.004 453.141L113.456 451.369C112.738 450.22 112.312 448.912 112.215 447.56C112.006 445.876 112.969 443.315 115.104 439.878L151.31 381.051C151.031 380.663 150.778 380.313 150.552 380.001C150.329 379.691 150.103 379.379 149.877 379.067L85.8517 396.171C82.1078 397.218 79.2024 397.539 77.1356 397.137C75.2406 396.828 73.5033 395.894 72.2001 394.484L69.8654 396.17C70.8436 397.359 71.8909 398.645 73.0073 400.028ZM24.8136 368.74C26.6653 369.702 28.7927 369.994 30.835 369.567C32.8774 369.139 34.709 368.018 36.0193 366.394C37.3295 364.77 38.0378 362.743 38.024 360.657C38.0101 358.57 37.275 356.553 35.9433 354.946C34.6116 353.34 32.7653 352.243 30.7174 351.843C28.6696 351.442 26.5462 351.762 24.7075 352.749C22.8688 353.735 21.4278 355.327 20.629 357.255C19.8302 359.183 19.7227 361.328 20.3247 363.325C20.6634 364.487 21.2366 365.567 22.0088 366.499C22.781 367.43 23.7359 368.194 24.8146 368.742L24.8136 368.74ZM54.5796 352.479C55.6742 354.918 56.6066 357.427 57.3709 359.989C58.1993 362.744 58.9197 365.635 59.5321 368.663L62.4277 367.79C61.2095 363.747 61.3673 360.692 62.9009 358.626C64.4346 356.559 67.2694 354.903 71.4054 353.658L114.561 340.655C118.422 339.492 121.284 339.507 123.147 340.701C125.01 341.895 126.509 344.376 127.645 348.143L130.541 347.272C129.98 345.737 129.145 343.381 128.036 340.205C126.928 337.029 125.903 333.879 124.963 330.754C123.996 327.54 123.102 324.325 122.282 321.11C121.461 317.895 120.863 315.493 120.487 313.905L117.592 314.778C118.727 318.548 118.847 321.442 117.951 323.461C117.055 325.481 114.678 327.074 110.819 328.243L51.1147 346.231C52.4524 348.208 53.6123 350.299 54.5807 352.481L54.5796 352.479ZM46.8437 265.724C48.9701 270.403 53.1692 274.283 59.4409 277.365L42.5201 275.811C43.0165 278.146 43.3053 280.52 43.3832 282.906C43.483 285.576 43.4068 288.25 43.1549 290.911C42.8916 293.778 42.4775 296.728 41.9128 299.759L44.9235 300.036C45.31 295.831 46.601 293.057 48.7967 291.714C50.9923 290.372 54.2412 289.899 58.5433 290.296L103.426 294.418C107.441 294.786 110.088 295.872 111.369 297.677C112.65 299.482 113.109 302.345 112.748 306.265L115.76 306.541C115.817 304.907 115.925 302.411 116.085 299.052C116.246 295.693 116.472 292.436 116.765 289.281C117.056 286.126 117.411 283.05 117.83 280.051C118.249 277.053 118.577 274.793 118.814 273.273L115.802 272.997C115.486 276.438 114.546 278.809 112.981 280.112C111.417 281.414 108.626 281.88 104.61 281.512L72.7766 278.589C65.416 277.912 59.3951 275.503 54.7139 271.363C52.4957 269.537 50.7677 267.187 49.6865 264.525C48.6052 261.862 48.2046 258.973 48.5211 256.117C48.8375 252.676 49.8373 250.189 51.5203 248.656C53.2754 247.094 55.4965 246.155 57.8396 245.983C60.5809 245.734 63.3396 245.745 66.0788 246.016L107.52 249.821C111.535 250.189 114.194 251.156 115.496 252.722C116.799 254.287 117.292 256.79 116.975 260.233L119.987 260.51C120.033 258.973 120.122 256.691 120.254 253.665C120.386 250.639 120.597 247.55 120.888 244.396C121.177 241.241 121.547 237.997 121.998 234.665C122.449 231.332 122.796 228.858 123.041 227.241L120.03 226.965C119.67 230.885 118.696 233.616 117.109 235.156C115.521 236.696 112.719 237.283 108.705 236.914L70.4177 233.399C66.523 232.938 62.5859 232.965 58.6979 233.48C55.9582 233.898 53.3691 235.003 51.1723 236.693C49.2409 238.238 47.678 240.194 46.5972 242.419C45.2938 245.245 44.5243 248.287 44.3272 251.393C43.8875 256.308 44.7554 261.251 46.8427 265.722L46.8437 265.724ZM77.0423 164.859C76.6261 170.757 78.0455 176.639 81.1057 181.697C84.2969 187.317 89.7382 192.665 97.4296 197.743C105.121 202.821 112.156 205.713 118.534 206.419C124.374 207.22 130.318 206.204 135.56 203.509C140.584 200.709 144.861 196.742 148.031 191.942C151.2 187.143 153.17 181.652 153.773 175.932C154.159 170.072 152.748 164.233 149.728 159.196C146.577 153.605 141.156 148.27 133.463 143.189C125.771 138.109 118.716 135.204 112.298 134.474C106.464 133.644 100.516 134.625 95.2562 137.283C90.2321 140.082 85.9547 144.049 82.7846 148.848C79.6145 153.647 77.6447 159.138 77.0413 164.857L77.0423 164.859ZM99.68 143.911C106.338 144.109 115.033 147.753 125.767 154.842C136.5 161.931 143.244 168.485 146 174.504C148.755 180.524 148.624 185.817 145.609 190.382C142.594 194.948 137.777 197.145 131.159 196.974C124.541 196.804 115.866 193.173 105.132 186.083C94.399 178.992 87.6346 172.424 84.839 166.38C82.0426 160.336 82.1529 155.03 85.1699 150.463C88.1868 145.895 93.0235 143.711 99.68 143.911ZM231.63 46.3535C229.992 47.0507 228.136 47.7757 226.063 48.5285C223.99 49.2814 222.146 49.8995 220.531 50.383C218.919 50.8677 216.924 51.4899 214.546 52.2498L215.53 54.955C220.443 53.581 223.882 53.5585 225.847 54.8877C227.811 56.2169 228.754 59.4497 228.675 64.586L227.936 110.657L228.503 109.685L196.4 74.0007C193.769 70.9732 192.44 68.6473 192.412 67.0229C192.406 66.2141 192.631 65.4203 193.06 64.735C193.49 64.0497 194.107 63.5015 194.838 63.1547C196.707 62.0978 198.666 61.2073 200.691 60.4934L199.66 57.6512C197.018 58.816 194.157 60.0065 191.074 61.2225C187.992 62.4386 185.054 63.5577 182.259 64.58C180.003 65.3985 177.88 66.0923 175.892 66.6615C173.903 67.2307 171.989 67.7969 170.15 68.3601L171.182 71.2026C172.485 70.8266 173.86 70.7745 175.187 71.0509C176.863 71.3102 179.062 72.9373 181.785 75.9321L228.457 126.855L229.675 126.413L230.757 126.019L231.829 59.757C231.847 55.8698 232.332 52.9873 233.285 51.1093C234.101 49.3713 235.474 47.956 237.187 47.0884L236.202 44.3824C234.792 45.0005 233.268 45.6575 231.63 46.3535ZM288.797 44.3867C283.485 47.5186 279.183 52.11 276.405 57.615C273.27 63.4963 271.39 70.6486 270.764 79.0718C270.138 85.7133 270.995 92.4112 273.275 98.6805C275.315 104.241 278.914 109.096 283.642 112.665C288.336 116.19 294.13 118.21 301.024 118.723C305.393 119.142 309.798 118.504 313.869 116.864C317.494 115.374 320.762 113.133 323.458 110.288C325.92 107.726 327.902 104.744 329.311 101.482L326.524 100.119C323.635 105.296 320.294 108.803 316.502 110.639C312.727 112.471 308.529 113.256 304.347 112.911C300.533 112.567 296.929 111.008 294.066 108.464C290.616 105.425 288.04 101.519 286.605 97.1506C284.772 91.6701 284.122 85.8634 284.697 80.1132C284.824 78.3905 285.001 76.6719 285.227 74.9574C285.452 73.2429 285.714 71.6718 286.01 70.2442L285.622 69.6381C287.003 60.1161 289.557 53.2787 293.286 49.1261C297.014 44.9735 301.08 43.0621 305.482 43.392C306.998 43.4633 308.478 43.8766 309.812 44.601C311.146 45.3255 312.299 46.3422 313.184 47.5751C315.221 50.5215 316.528 53.9104 316.996 57.4617C317.661 61.7928 317.723 66.1952 317.178 70.5432L280.129 67.7855L280.069 70.5242L330.761 74.2982C331.566 63.481 329.79 55.3346 325.432 49.8592C321.075 44.3837 314.682 41.3325 306.253 40.7055C300.195 40.1242 294.104 41.4087 288.797 44.3867ZM404.256 73.8934C400.893 74.3017 397.632 75.3181 394.632 76.893C391.78 78.346 389.116 80.1429 386.701 82.2435L395.066 66.3059C392.718 65.8746 390.414 65.2363 388.179 64.3985C385.673 63.4718 383.23 62.3807 380.867 61.1323C378.317 59.7937 375.749 58.2832 373.161 56.6007L371.756 59.2791C375.497 61.2412 377.567 63.4936 377.967 66.0361C378.367 68.5786 377.564 71.7618 375.557 75.5856L354.611 115.495C352.737 119.065 350.722 121.097 348.565 121.592C346.408 122.087 343.587 121.42 340.102 119.59L338.697 122.267C340.185 122.942 342.387 123.962 345.304 125.328C348.221 126.694 351.123 128.136 354.011 129.655C358.006 131.75 361.755 133.799 365.259 135.801C368.762 137.803 371.469 139.358 373.379 140.466L374.785 137.788C370.619 135.602 367.693 133.173 366.008 130.5C364.322 127.828 364.572 124.408 366.758 120.241L380.943 93.2108C382.893 89.7027 385.489 86.5955 388.594 84.0532C391.872 81.1909 395.694 79.0204 399.831 77.6719C401.691 77.0206 403.665 76.7615 405.63 76.911C407.595 77.0605 409.507 77.6153 411.247 78.5404C411.782 78.7799 412.247 79.1516 412.598 79.6206C412.95 80.0895 413.176 80.6402 413.256 81.2208C411.72 81.3407 410.217 81.7364 408.821 82.3889C407.292 83.102 406.052 84.3165 405.307 85.8309C404.77 86.7213 404.442 87.7226 404.349 88.7586C404.256 89.7946 404.4 90.8382 404.771 91.8101C405.489 93.6278 406.846 95.1204 408.588 96.007C409.578 96.5738 410.688 96.9011 411.827 96.9628C412.967 97.0245 414.105 96.8188 415.151 96.3621C417.282 95.4703 419.026 93.8493 420.071 91.7891C421.033 90.0137 421.443 87.992 421.249 85.9825C421.02 83.9058 420.271 81.9204 419.071 80.2101C417.707 78.263 415.878 76.6881 413.75 75.6286C410.842 74.0791 407.524 73.4726 404.256 73.8934ZM478.053 87.2041C475.966 87.1966 473.941 87.9111 472.321 89.2263C470.702 90.5415 469.586 92.3765 469.165 94.4201C468.744 96.4637 469.042 98.5902 470.01 100.439C470.977 102.288 472.554 103.745 474.474 104.563C476.393 105.382 478.536 105.511 480.54 104.93C482.544 104.348 484.286 103.092 485.469 101.373C486.652 99.6541 487.204 97.579 487.032 95.4995C486.86 93.42 485.973 91.4641 484.524 89.9635C483.691 89.0861 482.687 88.3887 481.574 87.9141C480.461 87.4395 479.263 87.1979 478.053 87.2041ZM459.036 115.29C456.948 113.623 454.971 111.82 453.12 109.893C451.12 107.822 449.155 105.582 447.227 103.172L445.052 105.273C447.987 108.311 449.247 111.099 448.83 113.638C448.413 116.177 446.651 118.948 443.544 121.949L411.13 153.268C408.23 156.069 405.679 157.366 403.476 157.159C401.273 156.951 398.804 155.432 396.07 152.601L393.895 154.702C395.096 155.81 396.916 157.522 399.356 159.837C401.796 162.153 404.149 164.485 406.416 166.833C408.75 169.249 411.017 171.698 413.216 174.18C415.414 176.663 417.045 178.524 418.109 179.764L420.284 177.663C417.548 174.83 416.114 172.309 415.982 170.1C415.85 167.892 417.234 165.387 420.134 162.585L464.978 119.258C462.885 118.113 460.896 116.785 459.036 115.29ZM516.077 154.961C514.779 153.149 513.522 151.209 512.305 149.14L492.884 159.544L486.357 147.358L483.818 148.718L490.346 160.904L447.821 183.681C444.144 185.531 440.714 187.835 437.61 190.539C435.347 192.612 433.657 195.234 432.702 198.15C432.12 200.304 431.965 202.551 432.248 204.764C432.684 207.47 433.609 210.074 434.976 212.45C437.741 217.611 441.484 220.534 446.207 221.219C451.308 221.862 456.49 221.297 461.333 219.57L460.607 216.691C454.972 217.966 450.62 218.228 447.551 217.477C446.149 217.192 444.826 216.602 443.677 215.749C442.529 214.895 441.582 213.8 440.904 212.54C440.249 211.461 439.84 210.252 439.705 208.998C439.569 207.744 439.711 206.475 440.12 205.282C440.955 202.981 443.363 200.766 447.342 198.637L496.467 172.324L506.529 191.11L509.068 189.75L499.006 170.964L520.204 159.61C518.659 158.219 517.275 156.66 516.077 154.961ZM452.922 262.002C455.115 265.649 458.925 268.684 464.352 271.107C461.219 271.435 458.247 272.66 455.793 274.634C453.42 276.572 452.541 280.018 453.156 284.973C453.351 287.503 454.178 289.945 455.559 292.074C456.929 293.93 458.431 295.684 460.054 297.322L462.292 295.453C461.364 294.656 460.524 293.764 459.785 292.789C459.063 291.791 458.617 290.62 458.494 289.394C458.347 288.735 458.384 288.048 458.598 287.408C458.813 286.768 459.198 286.199 459.712 285.761C461.191 284.794 462.897 284.232 464.661 284.132L504.389 279.209C508.357 278.78 512.264 277.907 516.036 276.605C519.168 275.483 521.879 273.423 523.799 270.707C525.36 268.517 526.412 266.007 526.879 263.359C527.45 259.996 527.49 256.564 526.997 253.188C526.559 249.191 525.512 245.284 523.893 241.602C522.641 238.697 520.961 235.995 518.91 233.586C517.488 231.972 515.848 230.564 514.039 229.401C512.156 228.311 509.95 227.917 507.807 228.287C505.67 228.532 503.672 229.467 502.115 230.95C500.51 232.456 499.88 234.59 500.224 237.354C500.405 239.511 501.407 241.516 503.022 242.956C503.836 243.635 504.788 244.129 505.811 244.403C506.835 244.677 507.906 244.725 508.95 244.543C510.969 244.373 512.865 243.499 514.305 242.073C515.745 240.647 516.638 238.76 516.828 236.742C519.123 238.102 520.873 240.22 521.777 242.731C522.725 245.151 523.379 247.676 523.725 250.252C524.039 252.532 523.958 254.85 523.485 257.102C522.973 259.258 521.683 261.149 519.862 262.412C517.913 263.862 514.938 264.835 510.937 265.331L502.077 266.43C501 266.564 499.907 266.428 498.895 266.034C497.884 265.639 496.986 264.999 496.284 264.172C494.379 262.056 492.769 259.694 491.496 257.148C489.975 254.239 488.409 251.168 486.799 247.935C485.22 244.754 483.387 241.705 481.317 238.82C479.381 236.076 476.869 233.787 473.957 232.114C470.805 230.434 467.188 229.837 463.662 230.415C458.517 231.051 454.571 232.967 451.823 236.162C449.074 239.357 448.084 244.05 448.852 250.242C449.361 254.406 450.748 258.414 452.922 262.002ZM457.555 247.281C459.427 244.823 462.554 243.324 466.936 242.782C471.606 242.202 475.344 242.9 478.151 244.875C480.973 246.865 483.362 249.407 485.172 252.348C487.043 255.357 488.784 258.285 490.395 261.133C491.701 263.671 493.728 265.767 496.22 267.159L468.21 270.629C464.007 268.73 460.901 266.503 458.895 263.947C456.984 261.62 455.756 258.808 455.349 255.825C455.123 254.326 455.202 252.796 455.581 251.328C455.96 249.86 456.632 248.484 457.555 247.281ZM520.676 338.697C520.403 335.335 519.152 332.126 517.078 329.466C515.005 326.808 511.895 324.869 507.75 323.651C504.357 322.546 500.709 322.497 497.288 323.51C493.938 324.601 490.807 326.273 488.036 328.449C485.065 330.73 482.034 333.217 478.944 335.912C475.361 339.128 471.538 342.069 467.51 344.707C465.867 345.781 464.004 346.474 462.058 346.734C460.112 346.995 458.133 346.816 456.265 346.212C451.38 344.779 448.37 342.421 447.234 339.136C446.116 336.24 445.945 333.064 446.745 330.065C448.096 325.457 450.232 322.182 453.153 320.24C456.353 318.212 460.077 317.165 463.865 317.228C468.675 317.212 473.477 317.616 478.217 318.436L479.153 315.257C472.151 313.204 466.545 311.51 462.335 310.174C458.126 308.839 454.573 307.647 451.679 306.598L450.744 309.779C452.938 310.821 454.319 311.827 454.887 312.795C455.026 312.997 455.121 313.228 455.163 313.471C455.206 313.713 455.195 313.962 455.133 314.2C455.07 314.438 454.956 314.66 454.8 314.85C454.643 315.041 454.447 315.195 454.226 315.302C453.217 316.006 452.249 316.748 451.322 317.527C450.444 318.256 449.613 319.04 448.834 319.873C447.693 321.359 446.698 322.952 445.863 324.629C444.977 326.426 444.253 328.298 443.697 330.222C442.479 334.209 442.067 338.399 442.484 342.547C442.85 346.349 444.217 349.985 446.446 353.087C448.845 356.267 452.253 358.537 456.113 359.524C461.824 361.199 466.97 360.708 471.552 358.05C476.622 355.037 481.407 351.568 485.847 347.685C488.79 345.146 491.506 342.791 493.995 340.621C496.21 338.628 498.717 336.986 501.43 335.752C503.912 334.671 506.701 334.528 509.28 335.35C512.78 336.375 515.111 338.234 516.273 340.927C517.442 343.75 517.557 346.899 516.597 349.8C515.381 353.946 513.358 357.004 510.53 358.976C507.661 360.961 504.334 362.18 500.862 362.519C497.278 362.908 493.66 362.879 490.082 362.433L489.147 365.614C495.134 367.369 499.888 368.813 503.408 369.946C506.928 371.078 509.951 372.115 512.477 373.055L513.412 369.874C507.798 367.526 506.68 365.198 510.059 362.888C511.908 361.538 513.58 359.961 515.037 358.195C517.18 355.605 518.734 352.58 519.591 349.33C520.627 345.887 520.995 342.278 520.676 338.697ZM435.728 448.994C436.941 445.656 437.291 442.066 436.746 438.557C436.133 434.986 434.6 431.636 432.3 428.837C429.999 426.038 427.01 423.886 423.625 422.592C420.295 421.346 416.696 420.995 413.188 421.575C409.617 422.189 406.268 423.721 403.469 426.022C400.67 428.322 398.518 431.312 397.225 434.696C396.012 438.034 395.662 441.624 396.207 445.133C396.776 448.721 398.292 452.092 400.599 454.898C402.905 457.704 405.919 459.844 409.329 461.096C412.674 462.274 416.256 462.624 419.766 462.114C423.353 461.545 426.724 460.03 429.53 457.723C432.336 455.417 434.476 452.403 435.728 448.994Z" fill="#242525" stroke="#242525"/>
</g>
<defs>
<clipPath id="clip0">
<rect width="576" height="576" fill="white"/>
</clipPath>
</defs>
</svg>
