<svg width="576" height="576" viewBox="0 0 576 576" fill="none" xmlns="http://www.w3.org/2000/svg">
<g clip-path="url(#clip0)">
<path fill-rule="evenodd" clip-rule="evenodd" d="M120.668 499.508C122.741 499.276 124.671 498.334 126.129 496.842C127.587 495.35 128.485 493.4 128.669 491.322C128.853 489.243 128.313 487.165 127.14 485.44C125.967 483.715 124.233 482.448 122.233 481.855C120.233 481.262 118.089 481.379 116.165 482.186C114.241 482.993 112.656 484.441 111.678 486.284C110.699 488.126 110.389 490.251 110.798 492.297C111.207 494.342 112.311 496.184 113.923 497.508C114.851 498.285 115.929 498.863 117.088 499.206C118.248 499.55 119.467 499.653 120.668 499.508ZM136.342 469.428C138.607 470.845 140.777 472.41 142.837 474.112C145.062 475.941 147.269 477.941 149.46 480.113L151.381 477.777C148.117 475.096 146.547 472.47 146.67 469.9C146.793 467.329 148.226 464.376 150.969 461.039L179.58 426.212C182.141 423.097 184.526 421.516 186.738 421.47C188.949 421.424 191.576 422.65 194.618 425.148L196.538 422.812C195.217 421.85 193.212 420.358 190.524 418.336C187.835 416.315 185.23 414.268 182.709 412.196C180.113 410.064 177.581 407.89 175.113 405.676C172.646 403.462 170.812 401.8 169.611 400.69L167.692 403.027C170.735 405.526 172.448 407.865 172.83 410.043C173.213 412.222 172.124 414.869 169.564 417.984L129.989 466.164C132.199 467.063 134.325 468.155 136.342 469.428ZM81.6478 401.85C86.0244 404.541 91.6745 405.413 98.5982 404.467L83.6961 412.632C85.4132 414.289 86.9803 416.094 88.3791 418.028C89.9535 420.187 91.3838 422.447 92.6607 424.794C94.0453 427.321 95.3493 430 96.5727 432.832L99.2242 431.379C97.1942 427.675 96.7153 424.653 97.7874 422.314C98.8594 419.974 101.29 417.767 105.079 415.692L144.606 394.034C148.142 392.097 150.945 391.519 153.015 392.3C155.086 393.081 157.066 395.199 158.956 398.654L161.609 397.201C160.741 395.817 159.437 393.686 157.694 390.807C155.952 387.929 154.32 385.101 152.8 382.324C151.277 379.546 149.853 376.796 148.526 374.075C147.2 371.355 146.208 369.297 145.551 367.903L142.899 369.356C144.56 372.387 145.105 374.88 144.534 376.834C143.964 378.788 141.91 380.734 138.373 382.672L110.342 398.035C103.86 401.586 97.5207 402.952 91.3242 402.133C88.4641 401.858 85.7179 400.874 83.3339 399.27C80.9499 397.666 79.0034 395.493 77.6704 392.948C76.0103 389.917 75.45 387.296 75.9893 385.084C76.5724 382.809 77.8895 380.788 79.7366 379.337C81.8714 377.599 84.1655 376.067 86.5883 374.761L123.086 354.765C126.622 352.828 129.367 352.145 131.322 352.716C133.277 353.287 135.085 355.087 136.746 358.119L139.397 356.665C138.577 355.365 137.376 353.423 135.795 350.84C134.215 348.256 132.664 345.576 131.142 342.797C129.621 340.019 128.116 337.123 126.627 334.106C125.138 331.09 124.044 328.844 123.344 327.366L120.692 328.819C122.585 332.273 123.302 335.082 122.845 337.246C122.388 339.41 120.393 341.461 116.859 343.4L83.1392 361.874C79.6511 363.668 76.4006 365.89 73.4634 368.489C71.4249 370.367 69.8955 372.73 69.0179 375.359C68.2789 377.719 68.0754 380.214 68.422 382.663C68.9206 385.734 69.9824 388.686 71.5541 391.371C73.9358 395.693 77.418 399.308 81.6478 401.85ZM56.3386 215.345C56.1508 217.114 55.881 219.089 55.5292 221.267C55.1774 223.446 54.8202 225.357 54.4576 227.001C54.0963 228.646 53.6688 230.692 53.1752 233.139L56.0181 233.599C57.2093 228.638 58.863 225.623 60.9792 224.554C63.0955 223.484 66.3779 224.233 70.8267 226.799L110.716 249.864L110.147 248.898L63.3509 259.579C59.4256 260.404 56.7467 260.433 55.314 259.668C54.604 259.279 54.02 258.696 53.6307 257.986C53.2414 257.276 53.063 256.47 53.1167 255.663C53.1029 253.516 53.2779 251.372 53.6398 249.256L50.6548 248.774C50.3864 251.648 50.0351 254.729 49.6009 258.016C49.1667 261.303 48.7126 264.414 48.2385 267.35C47.8561 269.72 47.4293 271.912 46.958 273.926C46.4867 275.94 46.0508 277.887 45.6503 279.769L48.6364 280.25C48.9415 278.929 49.5651 277.703 50.4527 276.678C51.496 275.34 53.9876 274.21 57.9275 273.289L125.126 257.295C125.203 256.822 125.272 256.396 125.333 256.016C125.394 255.639 125.455 255.259 125.516 254.878L68.1481 221.7C64.7611 219.792 62.4792 217.965 61.3024 216.219C60.1809 214.661 59.6126 212.772 59.6881 210.854L56.8449 210.395C56.6959 211.927 56.5271 213.577 56.3386 215.345ZM44.3844 159.143C45.0135 161.132 46.3113 162.843 48.0578 163.985C49.8044 165.127 51.892 165.629 53.9669 165.407C56.0417 165.186 57.9759 164.253 59.4416 162.768C60.9073 161.283 61.8141 159.336 62.0084 157.259C62.2027 155.181 61.6724 153.1 60.5075 151.369C59.3426 149.638 57.6148 148.363 55.6171 147.76C53.6193 147.157 51.4747 147.264 49.5467 148.062C47.6188 148.861 46.0263 150.301 45.0392 152.14C44.4573 153.201 44.099 154.369 43.9862 155.574C43.8735 156.779 44.0088 157.994 44.3839 159.145L44.3844 159.143ZM76.9309 168.692C75.9799 171.191 74.8651 173.624 73.5938 175.976C72.2316 178.51 70.6967 181.064 68.989 183.638L71.6536 185.068C73.6513 181.348 75.9229 179.299 78.4684 178.922C81.014 178.546 84.1894 179.379 87.9948 181.423L127.705 202.744C131.257 204.652 133.27 206.687 133.743 208.848C134.217 211.01 133.523 213.824 131.661 217.291L134.326 218.722C135.014 217.24 136.089 214.984 137.551 211.955C139.013 208.925 140.516 205.973 142.061 203.098C143.65 200.142 145.291 197.237 146.984 194.383C148.678 191.53 149.953 189.409 150.81 188.02L148.146 186.59C146.283 190.058 144.321 192.19 142.26 192.984C140.199 193.778 137.391 193.224 133.836 191.322L78.8985 161.824C78.4468 164.168 77.7882 166.466 76.9304 168.694L76.9309 168.692ZM132.806 101.877C131.001 106.689 131.226 112.402 133.482 119.016L122.616 105.952C121.316 107.954 119.841 109.837 118.209 111.579C116.392 113.538 114.447 115.375 112.388 117.078C110.174 118.92 107.795 120.713 105.253 122.457L107.186 124.781C110.433 122.081 113.307 121.032 115.809 121.636C118.31 122.239 120.942 124.202 123.703 127.525L152.526 162.176C155.105 165.275 156.208 167.916 155.838 170.097C155.467 172.279 153.768 174.628 150.74 177.145L152.674 179.47C153.87 178.355 155.712 176.666 158.201 174.405C160.689 172.143 163.152 170 165.59 167.976C168.027 165.951 170.453 164.026 172.87 162.202C175.286 160.378 177.115 159.013 178.358 158.105L176.424 155.78C173.767 157.99 171.426 159.002 169.399 158.817C167.372 158.631 165.068 156.988 162.489 153.887L142.046 129.311C137.32 123.627 134.766 117.667 134.383 111.429C134.106 108.569 134.546 105.686 135.664 103.039C136.782 100.392 138.542 98.0653 140.785 96.2697C143.442 94.0601 145.908 93.0084 148.182 93.1146C150.527 93.2513 152.762 94.1576 154.54 95.6931C156.654 97.4553 158.597 99.4137 160.343 101.542L186.956 133.536C189.534 136.636 190.73 139.2 190.545 141.227C190.359 143.255 188.937 145.374 186.279 147.584L188.213 149.91C189.332 148.855 191.008 147.305 193.241 145.259C195.474 143.212 197.808 141.177 200.244 139.153C202.679 137.126 205.235 135.094 207.91 133.056C210.585 131.019 212.581 129.515 213.897 128.545L211.963 126.221C208.937 128.738 206.317 129.98 204.105 129.947C201.893 129.913 199.498 128.347 196.92 125.248L172.332 95.6889C169.904 92.6087 167.101 89.8439 163.988 87.4589C161.755 85.8172 159.143 84.7681 156.394 84.4096C153.936 84.1364 151.448 84.4143 149.111 85.2231C146.191 86.2998 143.495 87.907 141.16 89.9639C137.374 93.1281 134.492 97.2373 132.806 101.875L132.806 101.877ZM225.481 51.9082C221.017 55.7841 217.861 60.9469 216.448 66.6879C214.731 72.9178 214.797 80.5474 216.645 89.5767C218.493 98.606 221.422 105.625 225.433 110.635C228.996 115.33 233.918 118.815 239.53 120.615C245.063 122.188 250.892 122.408 256.527 121.255C262.162 120.103 267.437 117.613 271.908 113.995C276.326 110.124 279.457 104.997 280.882 99.2998C282.607 93.1191 282.547 85.5128 280.7 76.4811C278.853 67.4494 275.919 60.4066 271.897 55.3527C268.358 50.6404 263.459 47.1273 257.86 45.2879C252.328 43.7149 246.499 43.495 240.864 44.6469C235.229 45.7987 229.953 48.2885 225.482 51.9063L225.481 51.9082ZM256.301 53.1027C260.869 57.9507 264.441 66.6759 267.018 79.2782C269.595 91.8806 269.729 101.284 267.422 107.489C265.113 113.694 261.278 117.344 255.918 118.44C250.558 119.536 245.598 117.684 241.039 112.883C236.48 108.083 232.913 99.3815 230.337 86.778C227.761 74.1746 227.622 64.7474 229.92 58.4963C232.216 52.2456 236.045 48.572 241.408 47.4754C246.772 46.3788 251.736 48.2545 256.301 53.1027ZM418.588 77.4222C416.936 76.7568 415.112 75.9572 413.113 75.0235C411.115 74.0898 409.374 73.223 407.89 72.4231C406.408 71.6263 404.557 70.6555 402.338 69.5108L401.121 72.1198C405.567 74.6224 408.014 77.0381 408.464 79.3671C408.913 81.696 407.293 84.6485 403.606 88.2245L370.506 120.279L371.594 119.993L374.127 72.0601C374.407 68.059 375.112 65.4743 376.241 64.306C376.808 63.7297 377.529 63.3276 378.317 63.1469C379.106 62.9662 379.929 63.0145 380.691 63.2861C382.76 63.8607 384.775 64.616 386.712 65.5434L387.993 62.8045C385.301 61.7603 382.436 60.5784 379.396 59.2588C376.357 57.9392 373.488 56.6528 370.789 55.3995C368.615 54.3828 366.623 53.3727 364.815 52.369C363.006 51.3654 361.253 50.4124 359.554 49.5099L358.274 52.25C359.461 52.9053 360.47 53.8405 361.213 54.9745C362.215 56.3431 362.619 59.0487 362.426 63.0912L359.421 132.102L360.595 132.65L361.638 133.137L409.25 87.0402C412.012 84.3044 414.393 82.6093 416.395 81.9551C418.201 81.303 420.173 81.2735 421.998 81.8713L423.215 79.2613C421.78 78.7009 420.238 78.0879 418.588 77.4222ZM460.401 116.454C454.431 114.913 448.143 115.118 442.285 117.046C435.91 118.988 429.523 122.716 423.125 128.23C417.985 132.483 413.855 137.825 411.034 143.87C408.545 149.245 407.657 155.223 408.477 161.089C409.303 166.901 411.972 172.426 416.484 177.664C419.277 181.05 422.843 183.714 426.881 185.432C430.498 186.942 434.394 187.668 438.311 187.563C441.864 187.492 445.375 186.785 448.677 185.475L447.67 182.54C441.966 184.158 437.124 184.276 433.144 182.892C429.18 181.518 425.657 179.105 422.943 175.904C420.489 172.963 419.044 169.313 418.818 165.49C418.527 160.901 419.468 156.318 421.542 152.214C424.121 147.043 427.767 142.477 432.24 138.818C433.548 137.69 434.888 136.599 436.26 135.547C437.632 134.494 438.928 133.568 440.147 132.768L440.301 132.065C448.01 126.308 454.652 123.28 460.224 122.98C465.797 122.68 470.023 124.203 472.903 127.549C473.925 128.672 474.679 130.011 475.11 131.466C475.541 132.922 475.637 134.456 475.391 135.953C474.748 139.477 473.276 142.798 471.096 145.64C468.504 149.173 465.434 152.329 461.975 155.019L437.727 126.871L435.748 128.765L468.924 167.278C477.142 160.198 481.646 153.182 482.437 146.229C483.227 139.276 480.864 132.598 475.348 126.195C471.475 121.5 466.26 118.101 460.401 116.454ZM521.179 218.96C518.512 216.871 515.487 215.284 512.253 214.277C509.209 213.287 506.055 212.674 502.861 212.452L520.046 207.097C518.691 205.132 517.513 203.051 516.525 200.879C515.408 198.451 514.452 195.952 513.664 193.398C512.807 190.649 512.059 187.765 511.42 184.746L508.532 185.646C509.789 189.678 509.661 192.735 508.146 194.816C506.631 196.896 503.812 198.579 499.689 199.864L456.658 213.274C452.809 214.473 449.946 214.485 448.071 213.309C446.196 212.134 444.673 209.667 443.503 205.91L440.617 206.809C441.191 208.338 442.027 210.617 443.124 213.645C444.221 216.674 445.253 219.746 446.221 222.861C447.564 227.168 448.767 231.268 449.829 235.161C450.891 239.054 451.705 242.067 452.272 244.201L455.159 243.302C453.759 238.81 453.408 235.024 454.106 231.942C454.804 228.861 457.399 226.619 461.891 225.218L491.035 216.135C494.894 215.033 498.927 214.672 502.92 215.07C507.262 215.364 511.499 216.532 515.378 218.504C517.154 219.358 518.733 220.571 520.017 222.066C521.3 223.561 522.26 225.306 522.836 227.19C523.045 227.737 523.111 228.329 523.028 228.909C522.945 229.49 522.716 230.039 522.362 230.506C521.191 229.504 519.848 228.722 518.4 228.196C516.814 227.619 515.079 227.601 513.481 228.145C512.472 228.395 511.532 228.871 510.733 229.538C509.935 230.205 509.299 231.045 508.874 231.994C508.096 233.787 508.001 235.802 508.605 237.66C508.905 238.762 509.458 239.777 510.22 240.627C510.982 241.476 511.933 242.136 512.995 242.552C515.132 243.428 517.512 243.516 519.708 242.798C521.643 242.222 523.363 241.083 524.647 239.525C525.953 237.894 526.827 235.961 527.188 233.903C527.601 231.562 527.421 229.155 526.666 226.901C525.705 223.749 523.787 220.974 521.179 218.96ZM563.949 280.555C562.479 279.074 560.542 278.148 558.467 277.932C556.391 277.717 554.305 278.226 552.562 279.373C550.819 280.52 549.526 282.235 548.903 284.226C548.28 286.217 548.365 288.363 549.144 290.299C549.922 292.235 551.346 293.842 553.174 294.848C555.002 295.854 557.122 296.196 559.174 295.818C561.226 295.439 563.084 294.362 564.433 292.77C565.781 291.178 566.538 289.168 566.573 287.082C566.605 285.872 566.388 284.669 565.937 283.547C565.486 282.424 564.809 281.406 563.949 280.555ZM530.643 286.968C530.344 284.313 530.222 281.64 530.275 278.969C530.326 276.089 530.521 273.116 530.861 270.049L527.837 269.997C527.765 274.22 526.684 277.082 524.594 278.583C522.503 280.084 519.299 280.797 514.98 280.721L469.913 279.947C465.882 279.878 463.161 278.991 461.75 277.287C460.339 275.582 459.668 272.762 459.736 268.827L456.712 268.775C456.778 270.407 456.855 272.905 456.943 276.268C457.031 279.63 457.046 282.943 456.988 286.206C456.931 289.565 456.802 292.9 456.601 296.21C456.4 299.52 456.237 301.989 456.113 303.618L459.136 303.67C459.205 299.732 459.974 296.936 461.442 295.281C462.91 293.626 465.66 292.833 469.692 292.902L532.039 293.975C531.368 291.685 530.901 289.34 530.643 286.968ZM542.925 355.353C543.288 353.154 543.771 350.893 544.374 348.57L523.284 342.194L527.286 328.962L524.529 328.128L520.528 341.361L474.353 327.398C470.444 326.106 466.39 325.309 462.283 325.026C459.217 324.892 456.168 325.551 453.431 326.938C451.496 328.049 449.798 329.529 448.433 331.293C446.828 333.515 445.64 336.011 444.927 338.658C443.232 344.262 443.813 348.976 446.668 352.799C449.82 356.861 453.883 360.126 458.53 362.329L460.052 359.78C455.166 356.697 451.904 353.805 450.264 351.104C449.474 349.911 448.956 348.558 448.747 347.143C448.538 345.727 448.643 344.283 449.055 342.912C449.355 341.687 449.921 340.543 450.712 339.56C451.503 338.577 452.5 337.781 453.633 337.226C455.85 336.19 459.119 336.326 463.438 337.634L516.781 353.765L510.612 374.163L513.369 374.997L519.538 354.599L542.556 361.559C542.447 359.483 542.571 357.402 542.925 355.353ZM422.578 386.386C421.55 390.515 422.098 395.355 424.222 400.906C421.775 398.922 418.808 397.687 415.676 397.348C412.628 397.04 409.57 398.856 406.501 402.794C404.85 404.722 403.708 407.032 403.179 409.515C402.835 411.795 402.657 414.098 402.647 416.404L405.55 416.664C405.457 415.445 405.495 414.22 405.661 413.008C405.856 411.792 406.37 410.649 407.149 409.694C407.511 409.125 408.023 408.665 408.627 408.364C409.231 408.063 409.906 407.933 410.579 407.987C412.309 408.349 413.912 409.158 415.23 410.335L446.804 434.945C449.912 437.448 453.293 439.593 456.881 441.34C459.889 442.761 463.262 443.221 466.541 442.658C469.192 442.214 471.712 441.183 473.914 439.641C476.696 437.667 479.151 435.268 481.19 432.533C483.706 429.396 485.729 425.893 487.187 422.145C488.356 419.205 489.079 416.107 489.332 412.953C489.467 410.806 489.304 408.651 488.847 406.549C488.286 404.447 487.005 402.609 485.228 401.355C483.544 400.017 481.469 399.266 479.32 399.213C477.121 399.143 475.166 400.207 473.455 402.404C472.058 404.057 471.348 406.184 471.472 408.344C471.567 409.4 471.891 410.422 472.421 411.339C472.951 412.257 473.675 413.048 474.541 413.658C476.089 414.966 478.048 415.688 480.075 415.698C482.101 415.708 484.067 415.005 485.628 413.712C486.289 416.297 486.03 419.032 484.893 421.447C483.852 423.828 482.529 426.076 480.952 428.143C479.562 429.977 477.866 431.558 475.938 432.816C474.052 433.979 471.803 434.404 469.622 434.009C467.219 433.656 464.427 432.24 461.247 429.763L454.206 424.274C453.349 423.608 452.672 422.738 452.235 421.744C451.799 420.75 451.617 419.663 451.706 418.581C451.855 415.739 452.386 412.929 453.286 410.229C454.268 407.096 455.333 403.818 456.48 400.393C457.613 397.028 458.472 393.576 459.049 390.072C459.62 386.762 459.462 383.368 458.586 380.126C457.546 376.709 455.41 373.728 452.508 371.645C448.42 368.457 444.275 367.021 440.073 367.336C435.87 367.652 431.851 370.271 428.016 375.192C425.431 378.496 423.578 382.311 422.578 386.386ZM436.264 379.253C439.325 378.838 442.597 379.989 446.079 382.705C449.79 385.596 451.94 388.733 452.529 392.115C453.117 395.517 453.008 399.004 452.209 402.363C451.404 405.814 450.565 409.116 449.69 412.269C448.819 414.987 448.77 417.902 449.548 420.648L427.289 403.296C425.659 398.981 425.038 395.211 425.426 391.984C425.72 388.988 426.841 386.132 428.662 383.734C429.562 382.514 430.7 381.489 432.006 380.719C433.312 379.949 434.76 379.45 436.264 379.253ZM416.256 488.527C418.44 485.956 419.825 482.803 420.239 479.456C420.653 476.109 419.825 472.54 417.755 468.748C416.137 465.567 413.592 462.953 410.457 461.249C407.317 459.653 403.92 458.621 400.422 458.2C396.709 457.712 392.807 457.328 388.717 457.048C383.908 456.789 379.126 456.165 374.412 455.182C372.491 454.78 370.683 453.952 369.123 452.761C367.563 451.569 366.29 450.043 365.397 448.294C362.956 443.828 362.495 440.031 364.014 436.906C365.271 434.067 367.396 431.701 370.083 430.146C374.296 427.843 378.122 427.037 381.561 427.729C385.258 428.559 388.631 430.451 391.265 433.175C394.678 436.564 397.788 440.246 400.559 444.177L403.469 442.59C399.97 436.187 397.204 431.026 395.171 427.105C393.139 423.184 391.47 419.829 390.165 417.041L387.254 418.629C388.069 420.918 388.335 422.605 388.052 423.691C388.007 423.933 387.911 424.163 387.769 424.364C387.628 424.566 387.444 424.734 387.232 424.858C387.019 424.982 386.782 425.059 386.536 425.083C386.291 425.107 386.044 425.077 385.811 424.996C384.6 424.781 383.392 424.621 382.185 424.516C381.049 424.411 379.907 424.378 378.766 424.416C376.909 424.66 375.079 425.083 373.303 425.678C371.406 426.322 369.57 427.134 367.816 428.102C364.136 430.06 360.882 432.731 358.244 435.959C355.814 438.906 354.21 442.444 353.592 446.213C353.04 450.158 353.845 454.174 355.876 457.6C358.73 462.823 362.716 466.115 367.835 467.475C373.551 468.93 379.388 469.86 385.272 470.254C389.149 470.54 392.735 470.795 396.029 471.021C399.005 471.178 401.939 471.789 404.729 472.835C407.248 473.826 409.322 475.697 410.565 478.102C412.315 481.301 412.648 484.264 411.566 486.989C410.396 489.812 408.25 492.121 405.521 493.493C401.729 495.565 398.136 496.297 394.742 495.692C391.311 495.066 388.095 493.576 385.401 491.36C382.591 489.101 380.054 486.522 377.839 483.677L374.929 485.265C377.921 490.74 380.261 495.123 381.949 498.412C383.637 501.702 385.042 504.572 386.164 507.024L389.074 505.436C386.765 499.806 387.621 497.369 391.643 498.124C393.905 498.477 396.203 498.545 398.482 498.326C401.828 498.011 405.066 496.97 407.97 495.278C411.137 493.576 413.949 491.284 416.256 488.527ZM278.197 506.451C281.415 504.948 284.201 502.657 286.297 499.791C288.388 496.832 289.673 493.38 290.026 489.774C290.378 486.168 289.786 482.532 288.308 479.224C286.835 475.988 284.538 473.195 281.647 471.124C278.688 469.034 275.236 467.749 271.63 467.397C268.024 467.044 264.389 467.637 261.081 469.115C257.863 470.618 255.077 472.909 252.982 475.776C250.847 478.715 249.535 482.17 249.182 485.785C248.829 489.401 249.447 493.045 250.972 496.341C252.505 499.54 254.79 502.32 257.633 504.441C260.572 506.576 264.027 507.887 267.642 508.241C271.257 508.594 274.901 507.976 278.197 506.451Z" fill="#242525" stroke="#242525"/>
</g>
<defs>
<clipPath id="clip0">
<rect width="576" height="576" fill="white"/>
</clipPath>
</defs>
</svg>
